<svg width="130" height="15" viewBox="0 0 130 15" fill="none" xmlns="http://www.w3.org/2000/svg">
<rect width="20" height="14.2857" rx="2.14286" fill="url(#paint0_linear_22_5212)"/>
<path d="M10.078 6.22735C10.0705 6.82434 10.6101 7.1575 11.0165 7.35557C11.4342 7.55882 11.5745 7.68913 11.5729 7.87086C11.5697 8.14903 11.2397 8.27177 10.9309 8.27656C10.3921 8.28492 10.0788 8.13109 9.82975 8.01473L9.63567 8.92296C9.88554 9.03813 10.3482 9.13856 10.828 9.14294C11.9543 9.14294 12.6911 8.58701 12.6951 7.725C12.6995 6.63106 11.1819 6.57048 11.1923 6.08149C11.1959 5.93324 11.3374 5.77503 11.6474 5.73478C11.8008 5.71445 12.2245 5.69891 12.7047 5.92009L12.8932 5.04135C12.635 4.9473 12.303 4.85723 11.8897 4.85723C10.8296 4.85723 10.084 5.42074 10.078 6.22735ZM14.7045 4.93295C14.4988 4.93295 14.3255 5.0529 14.2482 5.23702L12.6393 9.07838H13.7648L13.9887 8.45948H15.364L15.494 9.07838H16.4859L15.6203 4.93295H14.7045ZM14.8619 6.0528L15.1867 7.60943H14.2972L14.8619 6.0528ZM8.71348 4.93295L7.82637 9.07838H8.8988L9.78551 4.93295H8.71348ZM7.12696 4.93295L6.0107 7.75449L5.55917 5.35538C5.50617 5.08758 5.29695 4.93295 5.06461 4.93295H3.23977L3.21426 5.0533C3.58888 5.1346 4.0145 5.26572 4.27234 5.406C4.43016 5.49168 4.47519 5.5666 4.527 5.77025L5.38223 9.07838H6.51563L8.25319 4.93295H7.12696Z" fill="white"/>
<rect x="22" width="20" height="14.2857" rx="2.14286" fill="#01326F"/>
<path d="M33.6651 3.63074H29.9156V10.3692H33.6651V3.63074Z" fill="#FF5F00"/>
<path d="M30.1535 7.00078C30.1528 6.35172 30.2998 5.71101 30.5834 5.12718C30.867 4.54334 31.2797 4.03167 31.7902 3.63093C31.1581 3.13411 30.3989 2.82517 29.5994 2.73941C28.8 2.65366 27.9925 2.79455 27.2693 3.14598C26.5462 3.49742 25.9365 4.04522 25.5099 4.72677C25.0834 5.40833 24.8571 6.19615 24.8571 7.00019C24.8571 7.80422 25.0834 8.59204 25.5099 9.2736C25.9365 9.95516 26.5462 10.503 27.2693 10.8544C27.9925 11.2058 28.8 11.3467 29.5994 11.261C30.3989 11.1752 31.1581 10.8663 31.7902 10.3694C31.2798 9.96882 30.8672 9.45735 30.5837 8.87373C30.3001 8.29011 30.153 7.64964 30.1535 7.00078Z" fill="#EB001B"/>
<path d="M38.7237 7.00054C38.7237 7.80464 38.4975 8.59251 38.0708 9.27409C37.6442 9.95567 37.0344 10.5035 36.3111 10.8548C35.5879 11.2062 34.7803 11.347 33.9808 11.2611C33.1813 11.1753 32.4221 10.8662 31.79 10.3692C32.3002 9.96823 32.7127 9.45661 32.9963 8.87296C33.28 8.28931 33.4274 7.64887 33.4274 6.99995C33.4274 6.35103 33.28 5.71058 32.9963 5.12693C32.7127 4.54328 32.3002 4.03167 31.79 3.6307C32.4221 3.13372 33.1813 2.82463 33.9808 2.73875C34.7803 2.65287 35.5879 2.79367 36.3111 3.14505C37.0344 3.49644 37.6442 4.04423 38.0708 4.72581C38.4975 5.40739 38.7237 6.19526 38.7237 6.99935V7.00054Z" fill="#F79E1B"/>
<g clip-path="url(#clip0_22_5212)">
<rect x="44" width="20" height="14.2857" rx="2.14286" fill="#1D71B9"/>
<path fill-rule="evenodd" clip-rule="evenodd" d="M55.9786 11.4178V6.88245L64.0507 6.88986V8.14264L63.1176 9.13942L64.0507 10.1458V11.425H62.5611L61.7695 10.5515L60.9834 11.4285L55.9786 11.4178Z" fill="white"/>
<path fill-rule="evenodd" clip-rule="evenodd" d="M56.518 10.9203V7.38147H59.5188V8.19669H57.4898V8.75016H59.4705V9.55192H57.4898V10.0955H59.5188V10.9203H56.518Z" fill="#1D71B9"/>
<path fill-rule="evenodd" clip-rule="evenodd" d="M59.504 10.9203L61.1641 9.14895L59.504 7.38171H60.7889L61.8035 8.5032L62.8209 7.38171H64.0509V7.40946L62.4259 9.14895L64.0509 10.8703V10.9203H62.8086L61.7761 9.78756L60.754 10.9203H59.504Z" fill="#1D71B9"/>
<path fill-rule="evenodd" clip-rule="evenodd" d="M56.3554 2.85718H58.3012L58.9845 4.40907V2.85718H61.3868L61.801 4.01986L62.2166 2.85718H64.0508V7.39227H54.3571L56.3554 2.85718Z" fill="white"/>
<path fill-rule="evenodd" clip-rule="evenodd" d="M56.7238 3.34985L55.1535 6.88569H56.2305L56.5266 6.17759H58.1318L58.4279 6.88569H59.5315L57.9678 3.34985H56.7238ZM56.8587 5.38407L57.3295 4.25847L57.8 5.38407H56.8587Z" fill="#1D71B9"/>
<path fill-rule="evenodd" clip-rule="evenodd" d="M59.5172 6.88509V3.34924L61.0309 3.35446L61.8099 5.52821L62.5941 3.34924H64.0509V6.88509L63.1135 6.89333V4.46441L62.2285 6.88509H61.3726L60.4692 4.45617V6.88509H59.5172Z" fill="#1D71B9"/>
</g>
<rect x="66" width="20" height="14.2857" rx="2.14286" fill="#CCECFF"/>
<path d="M76.9327 11.8272C79.3896 11.8392 81.6322 9.82793 81.6322 7.38115C81.6322 4.70571 79.3896 2.85641 76.9327 2.85718H74.8184C72.3322 2.85641 70.2857 4.70615 70.2857 7.38115C70.2857 9.82848 72.3322 11.8392 74.8184 11.8272H76.9327Z" fill="#016AAB"/>
<path d="M75.7615 9.76368V4.9053C76.7401 5.27992 77.4348 6.22538 77.4365 7.33433C77.4348 8.44349 76.7401 9.38841 75.7615 9.76368ZM72.221 7.33433C72.2232 6.22604 72.9168 5.28112 73.8949 4.90541V9.76269C72.9168 9.38731 72.2232 8.44294 72.221 7.33433ZM74.8284 3.22803C72.5565 3.22879 70.7156 5.06648 70.715 7.33433C70.7156 9.60196 72.5565 11.4393 74.8284 11.44C77.101 11.4393 78.9423 9.60196 78.9426 7.33433C78.9423 5.06648 77.101 3.22879 74.8284 3.22803Z" fill="white"/>
<rect x="88" width="20" height="14.2857" rx="2.14286" fill="white"/>
<path d="M100.905 7.31638C101.215 7.32311 101.527 7.30268 101.835 7.32699C102.148 7.38534 102.224 7.85881 101.946 8.01388C101.756 8.11604 101.531 8.05193 101.325 8.06995H100.905V7.31638ZM102.015 6.46343C102.084 6.70659 101.849 6.92492 101.615 6.89143H100.905C100.91 6.66212 100.895 6.41323 100.912 6.196C101.196 6.20401 101.484 6.17965 101.767 6.20873C101.888 6.23927 101.99 6.3392 102.015 6.46343ZM103.724 2.85744C103.737 3.32181 103.726 3.81073 103.73 4.28453C103.729 6.2108 103.732 8.13702 103.728 10.0634C103.716 10.7853 103.076 11.4126 102.359 11.427C101.642 11.4299 100.924 11.4275 100.206 11.4283V8.51614C100.988 8.51211 101.77 8.52434 102.552 8.51004C102.915 8.48728 103.312 8.24802 103.329 7.84897C103.372 7.4482 102.994 7.17099 102.635 7.12721C102.497 7.12363 102.501 7.08701 102.635 7.07104C102.977 6.99709 103.246 6.64296 103.145 6.28831C103.059 5.91529 102.647 5.77092 102.304 5.77163C101.605 5.76689 100.906 5.77097 100.206 5.76959C100.211 5.22593 100.197 4.68169 100.214 4.13843C100.269 3.42954 100.925 2.84494 101.632 2.85762C102.329 2.85752 103.027 2.85752 103.724 2.85749V2.85744Z" fill="url(#paint1_linear_22_5212)"/>
<path d="M92.3043 4.21174C92.3222 3.49096 92.9647 2.86882 93.6807 2.85828C94.3956 2.85608 95.1107 2.85796 95.8257 2.85733C95.8237 5.26889 95.8296 7.68071 95.8227 10.0921C95.7952 10.8042 95.1597 11.4144 94.4515 11.427C93.7352 11.4296 93.0188 11.4274 92.3024 11.4281V8.41783C92.9982 8.58221 93.7279 8.65218 94.4377 8.54315C94.862 8.47488 95.3263 8.26651 95.4699 7.8263C95.5756 7.44976 95.5161 7.05347 95.5319 6.667V5.76948H94.3034C94.2979 6.36308 94.3147 6.95771 94.2945 7.55059C94.2614 7.91501 93.9005 8.14655 93.5568 8.13418C93.1306 8.13869 92.2859 7.82527 92.2859 7.82527C92.2838 6.71312 92.2983 5.32031 92.3043 4.21184V4.21174Z" fill="url(#paint2_linear_22_5212)"/>
<path d="M96.2837 6.13163C96.2191 6.14535 96.2707 5.91137 96.2542 5.82261C96.2586 5.26142 96.245 4.69961 96.2617 4.13881C96.317 3.42692 96.9779 2.84086 97.6876 2.85752H99.7776C99.7757 5.26908 99.7815 7.68091 99.7747 10.0923C99.7471 10.8044 99.1115 11.4146 98.4033 11.4272C97.687 11.4299 96.9706 11.4277 96.2542 11.4284V8.13016C96.7434 8.53159 97.4084 8.59408 98.0179 8.59517C98.4775 8.59501 98.9343 8.52416 99.3805 8.41819V7.81395C98.8776 8.06459 98.2865 8.2238 97.729 8.0798C97.3401 7.983 97.0578 7.60717 97.0641 7.20584C97.019 6.78848 97.2637 6.34786 97.6738 6.22378C98.183 6.06437 98.738 6.18629 99.2153 6.39355C99.3176 6.4471 99.4214 6.51351 99.3805 6.34258V5.86764C98.5822 5.67771 97.7326 5.60782 96.9306 5.81444C96.6985 5.87993 96.4723 5.97924 96.2837 6.13168V6.13163Z" fill="url(#paint3_linear_22_5212)"/>
<g clip-path="url(#clip1_22_5212)">
<rect x="110" width="20" height="14.2857" rx="2.14286" fill="#01326F"/>
<g clip-path="url(#clip2_22_5212)">
<rect x="109.286" width="21.2625" height="14.2857" rx="2.14286" fill="#F7F7F7"/>
<path d="M110.863 0H119.649C120.875 0 121.638 0.776773 121.352 1.73293L117.262 15.3794C116.973 16.3322 115.745 17.1096 114.518 17.1096H105.733C104.508 17.1096 103.744 16.3322 104.03 15.3794L108.122 1.73293C108.408 0.776773 109.635 0 110.863 0Z" fill="#E21836"/>
<path d="M119.048 0H127.27C128.268 0 127.818 0.776773 127.583 1.73293L124.255 15.3794C124.022 16.3322 124.094 17.1096 123.094 17.1096H114.872C113.872 17.1096 113.253 16.3322 113.488 15.3794L116.816 1.73293C117.053 0.776773 118.049 0 119.048 0Z" fill="#00447C"/>
<path d="M126.536 0H133.336C134.287 0 134.877 0.773662 134.654 1.72599L131.489 15.3178C131.265 16.2668 130.314 17.0411 129.364 17.0411H122.567C121.616 17.0411 121.026 16.2668 121.249 15.3178L124.415 1.72599C124.636 0.773662 125.585 0 126.536 0Z" fill="#007B84"/>
<path d="M114.866 3.83799C114.361 3.84314 114.212 3.83799 114.165 3.82675C114.146 3.91369 113.806 5.48421 113.805 5.48552C113.732 5.80326 113.678 6.02976 113.497 6.17601C113.394 6.26103 113.274 6.30205 113.135 6.30205C112.911 6.30205 112.781 6.19096 112.759 5.98025L112.755 5.9079C112.755 5.9079 112.823 5.48229 112.823 5.4799C112.823 5.4799 113.18 4.0487 113.244 3.85952C113.248 3.84876 113.249 3.84314 113.25 3.83799C112.554 3.84409 112.431 3.83799 112.422 3.82675C112.418 3.84218 112.4 3.93091 112.4 3.93091L112.035 5.544L112.004 5.68081L111.944 6.12829C111.944 6.26103 111.97 6.36938 112.021 6.46098C112.188 6.75145 112.662 6.79498 112.93 6.79498C113.276 6.79498 113.6 6.72156 113.819 6.5875C114.199 6.3628 114.299 6.01158 114.387 5.69946L114.429 5.53934C114.429 5.53934 114.797 4.05289 114.859 3.85952C114.862 3.84876 114.863 3.84314 114.866 3.83799ZM116.118 5.03712C116.029 5.03712 115.867 5.05865 115.722 5.13004C115.669 5.15719 115.619 5.18852 115.566 5.21973L115.614 5.04789L115.588 5.01895C115.279 5.08149 115.21 5.08986 114.924 5.13004L114.9 5.14595C114.867 5.42064 114.838 5.62716 114.715 6.16709C114.668 6.36608 114.62 6.56698 114.571 6.76549L114.584 6.79072C114.877 6.7753 114.965 6.7753 115.219 6.77948L115.24 6.75712C115.272 6.59173 115.276 6.55299 115.348 6.21803C115.382 6.05922 115.452 5.71027 115.486 5.58602C115.55 5.5566 115.612 5.52766 115.672 5.52766C115.815 5.52766 115.797 5.65191 115.792 5.70142C115.786 5.78453 115.734 6.05599 115.681 6.28906L115.645 6.4395C115.62 6.5506 115.593 6.65858 115.568 6.76872L115.579 6.79072C115.867 6.7753 115.955 6.7753 116.201 6.77948L116.23 6.75712C116.275 6.49882 116.288 6.4297 116.367 6.0536L116.406 5.8808C116.484 5.54261 116.522 5.37113 116.464 5.23145C116.402 5.07491 116.254 5.03712 116.118 5.03712ZM117.517 5.39121C117.364 5.42062 117.266 5.44024 117.169 5.45291C117.073 5.46834 116.979 5.48233 116.831 5.5029L116.819 5.51354L116.809 5.52203C116.793 5.63229 116.782 5.7276 116.762 5.83965C116.745 5.95553 116.718 6.08719 116.675 6.27638C116.641 6.42119 116.624 6.47166 116.604 6.5226C116.586 6.57355 116.565 6.62305 116.527 6.76548L116.536 6.77864L116.544 6.79071C116.682 6.78414 116.773 6.77947 116.866 6.77864C116.959 6.77529 117.055 6.77863 117.204 6.77947L117.217 6.76883L117.231 6.75711C117.252 6.62867 117.256 6.59411 117.269 6.53145C117.282 6.46425 117.304 6.37121 117.359 6.12271C117.385 6.00599 117.415 5.88964 117.442 5.77053C117.47 5.6519 117.499 5.53507 117.527 5.41835L117.523 5.40424L117.517 5.39121ZM117.521 4.9138C117.381 4.83164 117.137 4.85771 116.973 4.9712C116.809 5.08241 116.79 5.24026 116.929 5.3235C117.066 5.40338 117.311 5.37958 117.474 5.26514C117.637 5.15153 117.658 4.99511 117.521 4.9138ZM118.362 6.81646C118.644 6.81646 118.933 6.73885 119.15 6.50853C119.317 6.32173 119.394 6.04382 119.42 5.92938C119.507 5.55005 119.439 5.37294 119.355 5.26508C119.226 5.10065 119 5.04791 118.764 5.04791C118.622 5.04791 118.285 5.0619 118.022 5.30478C117.833 5.47997 117.745 5.71771 117.692 5.94564C117.639 6.17787 117.578 6.59594 117.962 6.75152C118.081 6.80247 118.252 6.81646 118.362 6.81646ZM118.34 5.96298C118.405 5.67573 118.482 5.43465 118.678 5.43465C118.831 5.43465 118.842 5.61403 118.774 5.90223C118.762 5.96621 118.706 6.20406 118.63 6.30535C118.577 6.38009 118.515 6.42542 118.445 6.42542C118.425 6.42542 118.303 6.42542 118.301 6.24377C118.3 6.15408 118.318 6.06247 118.34 5.96298ZM120.124 6.77952L120.146 6.75716C120.178 6.59177 120.183 6.55291 120.252 6.21807C120.286 6.05926 120.358 5.71031 120.391 5.58606C120.455 5.55652 120.517 5.52758 120.578 5.52758C120.72 5.52758 120.703 5.65183 120.697 5.70134C120.692 5.78457 120.64 6.05591 120.586 6.28898L120.552 6.43942C120.526 6.55063 120.499 6.6585 120.474 6.76876L120.485 6.79076C120.774 6.77533 120.858 6.77533 121.106 6.77952L121.136 6.75716C121.179 6.49873 121.191 6.42961 121.272 6.05364L121.311 5.88072C121.388 5.54253 121.428 5.37116 121.37 5.23149C121.307 5.07495 121.158 5.03716 121.024 5.03716C120.935 5.03716 120.772 5.05857 120.627 5.13008C120.575 5.15722 120.523 5.18844 120.472 5.21977L120.517 5.04792L120.493 5.01886C120.184 5.08153 120.114 5.0899 119.829 5.13008L119.807 5.14598C119.772 5.42067 119.744 5.62708 119.621 6.16712C119.574 6.36611 119.526 6.56702 119.477 6.76553L119.49 6.79076C119.783 6.77533 119.871 6.77533 120.124 6.77952ZM122.249 6.7907C122.267 6.70197 122.375 6.17603 122.376 6.17603C122.376 6.17603 122.468 5.79013 122.474 5.77614C122.474 5.77614 122.502 5.73596 122.531 5.72005H122.574C122.976 5.72005 123.429 5.72005 123.785 5.45852C124.027 5.27914 124.192 5.01426 124.266 4.69234C124.285 4.61341 124.299 4.51954 124.299 4.42566C124.299 4.30237 124.274 4.18039 124.203 4.08508C124.022 3.83144 123.661 3.82678 123.244 3.82486C123.242 3.82486 123.038 3.82678 123.038 3.82678C122.505 3.83335 122.291 3.83144 122.203 3.82068C122.196 3.85954 122.182 3.92866 122.182 3.92866C122.182 3.92866 121.991 4.81431 121.991 4.81575C121.991 4.81575 121.533 6.69874 121.512 6.78747C121.977 6.78185 122.168 6.78185 122.249 6.7907ZM122.603 5.21744C122.603 5.21744 122.806 4.33358 122.805 4.33693L122.812 4.29161L122.815 4.25705L122.896 4.26542C122.896 4.26542 123.315 4.30141 123.325 4.30237C123.49 4.36635 123.558 4.53125 123.511 4.74651C123.467 4.94323 123.34 5.10861 123.176 5.1885C123.041 5.25618 122.875 5.2618 122.705 5.2618H122.595L122.603 5.21744ZM123.868 5.97935C123.814 6.20824 123.753 6.62631 124.135 6.77531C124.257 6.82721 124.366 6.84264 124.477 6.83702C124.595 6.83068 124.703 6.77184 124.804 6.68718C124.795 6.72198 124.786 6.75677 124.777 6.79169L124.794 6.81406C125.069 6.80246 125.155 6.80246 125.453 6.80473L125.48 6.78416C125.523 6.52825 125.564 6.27975 125.678 5.79017C125.733 5.55566 125.788 5.32342 125.844 5.08987L125.835 5.06416C125.528 5.12121 125.445 5.1334 125.149 5.17538L125.127 5.19367C125.124 5.21747 125.121 5.24031 125.118 5.26315C125.072 5.18877 125.005 5.12527 124.902 5.08569C124.77 5.03391 124.461 5.10064 124.195 5.34268C124.009 5.51548 123.919 5.75226 123.868 5.97935ZM124.514 5.99334C124.58 5.71124 124.656 5.47255 124.852 5.47255C124.976 5.47255 125.041 5.58699 125.028 5.78215C125.018 5.83083 125.006 5.88213 124.993 5.94013C124.973 6.02396 124.952 6.10707 124.931 6.1903C124.91 6.24722 124.886 6.30092 124.859 6.33667C124.808 6.40818 124.688 6.45255 124.619 6.45255C124.599 6.45255 124.478 6.45255 124.474 6.27413C124.473 6.18528 124.492 6.09379 124.514 5.99334ZM127.89 5.06188L127.867 5.03473C127.562 5.09644 127.507 5.10625 127.227 5.14403L127.206 5.1646C127.206 5.16795 127.205 5.17309 127.203 5.17776L127.202 5.17309C126.994 5.65371 127 5.55003 126.83 5.9284C126.83 5.91117 126.83 5.90041 126.829 5.88212L126.786 5.06188L126.759 5.03473C126.44 5.09644 126.433 5.10625 126.138 5.14403L126.115 5.1646C126.112 5.17441 126.112 5.18517 126.11 5.19689L126.112 5.20108C126.149 5.3893 126.14 5.34733 126.177 5.64438C126.194 5.79015 126.217 5.93677 126.234 6.08075C126.263 6.32171 126.28 6.44034 126.315 6.80806C126.116 7.13645 126.069 7.26069 125.878 7.5489L125.879 7.55177L125.744 7.76511C125.729 7.78759 125.715 7.80302 125.695 7.80959C125.673 7.82024 125.645 7.82215 125.607 7.82215H125.532L125.421 8.19167L125.802 8.19824C126.026 8.19729 126.166 8.09265 126.242 7.95202L126.482 7.54136H126.478L126.503 7.51242C126.664 7.16539 127.89 5.06188 127.89 5.06188ZM123.868 9.91495H123.706L124.305 7.9357H124.503L124.566 7.7318L124.572 7.95854C124.565 8.09869 124.675 8.22294 124.965 8.20237H125.3L125.415 7.82125H125.289C125.216 7.82125 125.183 7.80296 125.187 7.76373L125.181 7.53305H124.561V7.53425C124.36 7.53843 123.761 7.5535 123.64 7.58579C123.493 7.62358 123.339 7.73479 123.339 7.73479L123.399 7.53066H122.819L122.698 7.9357L122.092 9.94521H121.974L121.859 10.3236H123.014L122.976 10.4497H123.545L123.583 10.3236H123.743L123.868 9.91495ZM123.394 8.33786C123.301 8.36357 123.128 8.44154 123.128 8.44154L123.282 7.9357H123.743L123.632 8.30426C123.632 8.30426 123.489 8.31263 123.394 8.33786ZM123.403 9.06051C123.403 9.06051 123.258 9.07869 123.162 9.10022C123.069 9.12868 122.893 9.21837 122.893 9.21837L123.051 8.69195H123.515L123.403 9.06051ZM123.144 9.91962H122.682L122.816 9.47536H123.277L123.144 9.91962ZM124.258 8.69195H124.925L124.829 9.00216H124.153L124.052 9.3413H124.643L124.195 9.9714C124.164 10.0177 124.136 10.0341 124.105 10.0471C124.073 10.063 124.032 10.0817 123.985 10.0817H123.821L123.708 10.4531H124.137C124.36 10.4531 124.492 10.3517 124.589 10.2186L124.896 9.7986L124.961 10.225C124.975 10.3049 125.033 10.3517 125.072 10.3699C125.115 10.3914 125.159 10.4283 125.222 10.4338C125.289 10.4367 125.337 10.439 125.37 10.439H125.58L125.707 10.0233H125.624C125.576 10.0233 125.494 10.0153 125.48 10.0003C125.466 9.98216 125.466 9.95418 125.458 9.9116L125.392 9.48421H125.118L125.238 9.3413H125.912L126.016 9.00216H125.392L125.489 8.69195H126.111L126.226 8.3094H124.371L124.258 8.69195ZM118.628 10.006L118.784 9.48843H119.423L119.54 9.10348H118.9L118.998 8.78491H119.623L119.739 8.41216H118.174L118.061 8.78491H118.416L118.321 9.10348H117.965L117.847 9.495H118.202L117.995 10.1798C117.967 10.2704 118.008 10.305 118.034 10.3471C118.061 10.3881 118.088 10.4152 118.148 10.4306C118.211 10.4446 118.254 10.453 118.312 10.453H119.033L119.162 10.0266L118.842 10.0704C118.78 10.0704 118.609 10.063 118.628 10.006ZM118.701 7.52833L118.539 7.82119C118.505 7.88517 118.474 7.92487 118.445 7.94317C118.421 7.9586 118.372 7.96505 118.301 7.96505H118.216L118.103 8.33971H118.384C118.519 8.33971 118.623 8.29021 118.672 8.26545C118.725 8.23699 118.739 8.25325 118.78 8.21355L118.875 8.1314H119.752L119.868 7.74131H119.227L119.339 7.52833H118.701ZM119.996 10.0135C119.981 9.99199 119.992 9.95408 120.015 9.87515L120.254 9.08195H121.107C121.231 9.08015 121.321 9.07872 121.379 9.07453C121.442 9.06795 121.51 9.04559 121.584 9.00541C121.661 8.96332 121.7 8.91895 121.733 8.86801C121.77 8.81718 121.829 8.70597 121.88 8.53448L122.182 7.53068L121.297 7.53583C121.297 7.53583 121.024 7.57601 120.904 7.62037C120.783 7.66988 120.611 7.80812 120.611 7.80812L120.69 7.53296H120.144L119.379 10.0704C119.352 10.169 119.333 10.2405 119.329 10.2834C119.328 10.3297 119.388 10.3755 119.426 10.4101C119.472 10.4446 119.54 10.439 119.605 10.4446C119.673 10.4498 119.77 10.453 119.904 10.453H120.324L120.453 10.0177L120.077 10.0532C120.037 10.0532 120.008 10.0317 119.996 10.0135ZM120.409 8.5462H121.304L121.247 8.72462C121.239 8.72881 121.22 8.71577 121.129 8.72654H120.354L120.409 8.5462ZM120.588 7.9478H121.491L121.426 8.16269C121.426 8.16269 121.001 8.15851 120.932 8.17106C120.633 8.22296 120.457 8.38321 120.457 8.38321L120.588 7.9478ZM121.267 9.32211C121.26 9.34877 121.248 9.36504 121.232 9.37724C121.214 9.38896 121.184 9.39314 121.14 9.39314H121.013L121.02 9.17585H120.49L120.468 10.2381C120.467 10.3148 120.475 10.3592 120.531 10.3947C120.587 10.439 120.76 10.4447 120.992 10.4447H121.325L121.445 10.047L121.155 10.0629L121.059 10.0686C121.046 10.0629 121.033 10.0578 121.019 10.0438C121.007 10.0317 120.987 10.0391 120.99 9.96249L120.992 9.69019L121.296 9.67764C121.46 9.67764 121.53 9.6243 121.59 9.57348C121.647 9.52481 121.665 9.46884 121.687 9.39314L121.738 9.15206H121.321L121.267 9.32211Z" fill="white"/>
</g>
</g>
<defs>
<linearGradient id="paint0_linear_22_5212" x1="8.98437" y1="14.2857" x2="13.6013" y2="0.472542" gradientUnits="userSpaceOnUse">
<stop stop-color="#222357"/>
<stop offset="1" stop-color="#254AA5"/>
</linearGradient>
<linearGradient id="paint1_linear_22_5212" x1="100.182" y1="6.9596" x2="103.708" y2="6.9596" gradientUnits="userSpaceOnUse">
<stop stop-color="#58B03A"/>
<stop offset="1" stop-color="#55B330"/>
</linearGradient>
<linearGradient id="paint2_linear_22_5212" x1="92.2275" y1="7.22481" x2="95.7679" y2="7.22481" gradientUnits="userSpaceOnUse">
<stop stop-color="#0F6EB6"/>
<stop offset="1" stop-color="#006DBA"/>
</linearGradient>
<linearGradient id="paint3_linear_22_5212" x1="96.249" y1="7.04272" x2="99.777" y2="7.04272" gradientUnits="userSpaceOnUse">
<stop stop-color="#DE0D3D"/>
<stop offset="1" stop-color="#E30138"/>
</linearGradient>
<clipPath id="clip0_22_5212">
<rect x="44" width="20" height="14.2857" rx="2.14286" fill="white"/>
</clipPath>
<clipPath id="clip1_22_5212">
<rect x="110" width="20" height="14.2857" rx="2.14286" fill="white"/>
</clipPath>
<clipPath id="clip2_22_5212">
<rect x="109.286" width="21.2625" height="14.2857" rx="2.14286" fill="white"/>
</clipPath>
</defs>
</svg>
