<svg width="40" height="25" viewBox="0 0 40 25" fill="none" xmlns="http://www.w3.org/2000/svg">
<g clip-path="url(#clip0_22_3891)">
<path d="M23.0971 12.3167L20.2845 9.02928C18.2972 6.70885 16.3084 4.38841 14.318 2.06798C14.1923 1.92218 14.1091 1.74678 14.0769 1.55977C14.0447 1.37276 14.0647 1.18086 14.1348 1.00375C14.2049 0.826638 14.3227 0.670685 14.476 0.551878C14.6293 0.433072 14.8126 0.355686 15.0071 0.327654C15.17 0.306889 15.3342 0.297095 15.4986 0.298343C17.5137 0.298343 19.5288 0.308418 21.5439 0.290099C22.1608 0.283688 22.6 0.473291 23.0135 0.941347C25.5856 3.83578 28.19 6.70457 30.7831 9.58069C31.3287 10.1871 31.8746 10.7928 32.4208 11.398C32.9645 12.0016 32.9759 12.5447 32.4389 13.1484C29.92 15.975 27.3995 18.8011 24.8774 21.6265L24.4801 22.0753C24.6236 22.0863 24.7149 22.1 24.8061 22.1C25.8251 22.1 26.8441 22.1083 27.8621 22.0918C28.028 22.0872 28.1858 22.0217 28.3031 21.9086C31.0362 18.7577 33.7627 15.6022 36.4824 12.4421C36.5309 12.3854 36.5775 12.3258 36.6421 12.2397C36.1776 11.6944 35.7135 11.1506 35.2496 10.6084L27.9676 2.11194C27.5456 1.61916 27.6036 0.949591 28.0997 0.554812C28.3315 0.373012 28.6281 0.28613 28.9256 0.312852C29.2232 0.339573 29.498 0.477763 29.6909 0.697701C32.8359 4.24552 35.9812 7.79273 39.1268 11.3393C39.758 12.051 39.7665 12.5301 39.1268 13.2363C36.0328 16.673 32.9237 20.0968 29.8506 23.5509C29.382 24.0776 28.9001 24.2938 28.1872 24.2837C26.1397 24.248 24.0913 24.2745 22.043 24.2699C21.1143 24.2699 20.5601 23.4648 20.9432 22.6835C21.0161 22.5541 21.1051 22.4338 21.2084 22.3254C24.0182 19.0584 26.8286 15.7915 29.6396 12.5246C29.7014 12.4513 29.7603 12.3762 29.8382 12.2809C29.221 11.5653 28.6064 10.8517 27.9942 10.1403C25.8511 7.65626 23.7089 5.17186 21.5677 2.68717C21.5145 2.61581 21.4435 2.55852 21.3613 2.52058C21.279 2.48264 21.1882 2.46527 21.0972 2.47008C19.9708 2.48016 18.8435 2.47467 17.6401 2.47467C17.7561 2.61298 17.8302 2.70824 17.9129 2.798L25.6379 11.3897C26.2006 12.0162 26.2082 12.5319 25.6445 13.1612C22.8487 16.3029 20.0522 19.4431 17.2551 22.5818C16.2704 23.6865 15.0185 24.2535 13.5082 24.2571C10.5397 24.2645 7.57115 24.2727 4.60265 24.2571C3.99592 24.2545 3.39567 24.1367 2.83618 23.9105C2.27669 23.6843 1.76893 23.3541 1.34189 22.9387C0.914853 22.5234 0.576903 22.0311 0.347344 21.4899C0.117784 20.9486 0.00111114 20.3692 0.00398873 19.7845C0.00398873 14.7687 0.00398873 9.75319 0.00398873 4.738C0.00398873 2.5397 1.52484 0.769147 3.71866 0.378948C3.98817 0.332564 4.26138 0.308964 4.53516 0.308418C6.41911 0.294679 8.30306 0.283687 10.187 0.286435C11.0254 0.286435 11.5387 0.966078 11.3086 1.73274C11.2623 1.90804 11.1648 2.06687 11.0277 2.19042C10.8905 2.31396 10.7195 2.39703 10.5349 2.42978C10.3524 2.46435 10.1666 2.4797 9.98074 2.47558C8.22892 2.47558 6.47614 2.47558 4.72337 2.47558C3.28902 2.47558 2.28526 3.44467 2.28526 4.8241C2.28526 9.79655 2.28526 14.7696 2.28526 19.7433C2.28526 21.1822 3.21012 22.0716 4.70436 22.0726C7.62818 22.0726 10.553 22.0661 13.4777 22.0771C13.8459 22.089 14.2118 22.0182 14.5467 21.8703C14.8816 21.7225 15.1762 21.5017 15.4073 21.2253C17.9421 18.3028 20.4746 15.3766 23.0049 12.4467C23.0315 12.4174 23.0534 12.3799 23.0971 12.3167Z" fill="white"/>
</g>
<defs>
<clipPath id="clip0_22_3891">
<rect width="39.6" height="24" fill="white" transform="translate(0 0.285645)"/>
</clipPath>
</defs>
</svg>
