<svg width="28" height="20" viewBox="0 0 28 20" fill="none" xmlns="http://www.w3.org/2000/svg">
<g clip-path="url(#clip0_6_7875)">
<rect width="28" height="20" rx="3" fill="#CCCCCC"/>
<rect y="4" width="28" height="4" fill="#B3B3B3"/>
<path d="M23.2063 11.2857C21.8255 11.2857 20.5013 10.7439 19.5249 9.77941C18.5485 8.81493 18 7.50683 18 6.14286C18 4.77889 18.5485 3.47078 19.5249 2.50631C20.5013 1.54184 21.8255 1 23.2063 1C24.5872 1 25.9114 1.54184 26.8878 2.50631C27.8642 3.47078 28.4127 4.77889 28.4127 6.14286C28.4127 7.50683 27.8642 8.81493 26.8878 9.77941C25.9114 10.7439 24.5872 11.2857 23.2063 11.2857Z" fill="white"/>
<path d="M23.2381 11.2877C21.8573 11.2877 20.533 10.7458 19.5566 9.78136C18.5803 8.81689 18.0317 7.50878 18.0317 6.14481C18.0317 4.78084 18.5803 3.47273 19.5566 2.50826C20.533 1.54379 21.8573 1.00195 23.2381 1.00195C24.6189 1.00195 25.9432 1.54379 26.9195 2.50826C27.8959 3.47273 28.4444 4.78084 28.4444 6.14481C28.4444 7.50878 27.8959 8.81689 26.9195 9.78136C25.9432 10.7458 24.6189 11.2877 23.2381 11.2877ZM21.1704 4.0142H20.5828L19.1474 4.7342V5.46889L20.2853 4.88114V8.27542H21.1779V4.0142H21.1704ZM22.8811 4.60195C23.305 4.60195 23.6025 4.83705 23.6025 5.17501C23.6025 5.54236 23.253 5.7995 22.7472 5.7995H22.5241V6.42399H22.7918C23.3273 6.42399 23.6918 6.68848 23.6918 7.07052C23.6918 7.43787 23.3348 7.68767 22.829 7.68767C22.4571 7.68767 22.0853 7.57012 21.6985 7.34236V8.07706C22.115 8.25338 22.5315 8.34889 22.9406 8.34889C23.9149 8.34889 24.5843 7.85665 24.5843 7.14399C24.5843 6.6444 24.2719 6.24032 23.7513 6.07869C24.1975 5.93175 24.4876 5.54236 24.4876 5.10154C24.4876 4.41093 23.8703 3.94073 22.9778 3.94073C22.5754 3.94514 22.1782 4.03012 21.8101 4.19052V4.91052C22.1671 4.71216 22.5315 4.60195 22.8811 4.60195ZM26.0941 6.20359C26.6371 6.20359 27.0164 6.5195 27.0164 6.93093C27.0164 7.3644 26.6371 7.66563 26.0941 7.66563C25.7669 7.66563 25.4248 7.56277 25.0752 7.34971V8.10644C25.4396 8.26808 25.8115 8.34889 26.176 8.34889C26.3693 8.34889 26.5478 8.3195 26.7189 8.27542C27.1057 7.65093 27.3288 6.93093 27.3288 6.1595L27.3139 5.85093C27.0374 5.68924 26.7203 5.60776 26.3991 5.61583C26.2652 5.61583 26.1239 5.62318 25.9751 5.64522V4.69012H27.0462C26.9533 4.45495 26.8387 4.2287 26.704 4.0142H25.2016V6.32848C25.4991 6.25501 25.7966 6.20359 26.0941 6.20359Z" fill="#595959"/>
</g>
<defs>
<clipPath id="clip0_6_7875">
<rect width="28" height="20" rx="3" fill="white"/>
</clipPath>
</defs>
</svg>
