<svg width="28" height="20" viewBox="0 0 28 20" fill="none" xmlns="http://www.w3.org/2000/svg">
<g clip-path="url(#clip0_6_7915)">
<rect width="28" height="20" rx="3" fill="#FFCCC7"/>
<rect y="4" width="28" height="4" fill="#FFA39E"/>
<path d="M23.2063 11.2857C21.8255 11.2857 20.5013 10.7439 19.5249 9.77941C18.5485 8.81493 18 7.50683 18 6.14286C18 4.77889 18.5485 3.47078 19.5249 2.50631C20.5013 1.54184 21.8255 1 23.2063 1C24.5872 1 25.9114 1.54184 26.8878 2.50631C27.8642 3.47078 28.4127 4.77889 28.4127 6.14286C28.4127 7.50683 27.8642 8.81493 26.8878 9.77941C25.9114 10.7439 24.5872 11.2857 23.2063 11.2857Z" fill="#CF1322"/>
<path d="M23.9879 2.7L23.8321 7.47555H22.6984L22.5378 2.7H23.9879ZM22.5 8.95403C22.5 8.75249 22.5693 8.58559 22.7078 8.45333C22.8495 8.31792 23.0353 8.25022 23.2652 8.25022C23.4983 8.25022 23.684 8.31792 23.8226 8.45333C23.9612 8.58559 24.0304 8.75249 24.0304 8.95403C24.0304 9.14927 23.9612 9.3146 23.8226 9.45001C23.684 9.58542 23.4983 9.65312 23.2652 9.65312C23.0353 9.65312 22.8495 9.58542 22.7078 9.45001C22.5693 9.3146 22.5 9.14927 22.5 8.95403Z" fill="white"/>
</g>
<defs>
<clipPath id="clip0_6_7915">
<rect width="28" height="20" rx="3" fill="white"/>
</clipPath>
</defs>
</svg>
