<svg width="52" height="22" viewBox="0 0 52 22" fill="none" xmlns="http://www.w3.org/2000/svg">
<path d="M9.91363 2.77588C9.32964 3.4834 8.34136 4.01123 7.55523 4.01123C7.46539 4.01123 7.37554 4 7.31939 3.98877C7.30816 3.94385 7.2857 3.80908 7.2857 3.67432C7.2857 2.77588 7.74615 1.87744 8.24029 1.31592C8.86919 0.574707 9.92486 0.0244141 10.8008 -0.00927734C10.8233 0.0917969 10.8345 0.215332 10.8345 0.338867C10.8345 1.2373 10.4527 2.12451 9.91363 2.77588ZM10.5313 4.20215C11.0254 4.20215 12.8111 4.24707 13.9791 5.93164C13.878 6.01025 12.1036 7.00977 12.1036 9.24463C12.1036 11.8276 14.3609 12.7485 14.4283 12.771C14.417 12.8271 14.0689 14.0176 13.2378 15.2417C12.4966 16.3086 11.7105 17.3867 10.5313 17.3867C9.34087 17.3867 9.03765 16.6904 7.67876 16.6904C6.34234 16.6904 5.87066 17.4092 4.79253 17.4092C3.70318 17.4092 2.95074 16.4097 2.08599 15.1968C1.07525 13.7593 0.266655 11.5356 0.266655 9.42432C0.266655 6.04395 2.46783 4.24707 4.63531 4.24707C5.78082 4.24707 6.7354 4.99951 7.46539 4.99951C8.15044 4.99951 9.21734 4.20215 10.5313 4.20215ZM15.9902 17.2856V1.08008H22.459C25.7495 1.08008 27.9732 3.24756 27.9732 6.49316V6.51562C27.9732 9.75 25.7495 11.9287 22.459 11.9287H18.8877V17.2856H15.9902ZM21.7515 3.44971H18.8877V9.59277H21.7515C23.8291 9.59277 25.042 8.46973 25.042 6.52686V6.50439C25.042 4.56152 23.8291 3.44971 21.7515 3.44971ZM32.5561 17.4878C30.2202 17.4878 28.5244 16.0503 28.5244 13.8154V13.793C28.5244 11.603 30.1977 10.3228 33.185 10.1431L36.3408 9.95215V8.89648C36.3408 7.67236 35.5434 6.99854 34.0386 6.99854C32.7583 6.99854 31.9272 7.45898 31.6465 8.26758L31.6352 8.3125H28.9961L29.0073 8.21143C29.2768 6.14502 31.2534 4.7749 34.1733 4.7749C37.3291 4.7749 39.1035 6.30225 39.1035 8.89648V17.2856H36.3408V15.6011H36.1499C35.4761 16.7915 34.1733 17.4878 32.5561 17.4878ZM31.2871 13.6807C31.2871 14.7251 32.1743 15.3428 33.4096 15.3428C35.0942 15.3428 36.3408 14.2422 36.3408 12.7822V11.7939L33.5781 11.9736C32.0171 12.0747 31.2871 12.6475 31.2871 13.6582V13.6807ZM42.1704 21.5981C41.8334 21.5981 41.4404 21.5869 41.1035 21.5532V19.4082C41.3281 19.4307 41.6425 19.4419 41.9345 19.4419C43.08 19.4419 43.7651 18.9702 44.0683 17.8584L44.2143 17.2969L39.8232 5.01074H42.8779L45.7416 14.6016H45.955L48.8076 5.01074H51.7499L47.3476 17.5439C46.2919 20.6211 44.8881 21.5981 42.1704 21.5981Z" fill="white"/>
</svg>
