<svg width="57" height="39" viewBox="0 0 57 39" fill="none" xmlns="http://www.w3.org/2000/svg">
<path d="M27.8978 17.4694C27.4918 17.4694 27.1438 17.8022 27.1438 18.1904V23.57C27.1438 23.9582 27.4918 24.2909 27.8978 24.2909C28.3039 24.2909 28.6519 23.9582 28.6519 23.57V18.1904C28.7099 17.8022 28.3619 17.4694 27.8978 17.4694ZM27.8978 14.8073C27.4338 14.8073 27.0277 15.1956 27.0277 15.6392C27.0277 16.0829 27.4338 16.4711 27.8978 16.4711C28.3619 16.4711 28.7679 16.0829 28.7679 15.6392C28.7679 15.1401 28.4199 14.8073 27.8978 14.8073ZM35.3807 18.1904C35.3807 17.7467 34.9747 17.5803 34.6847 17.5803H30.9142C30.5662 17.5803 30.2181 17.8576 30.2181 18.1904C30.2181 18.5231 30.5082 18.8559 30.9142 18.8559H33.4085L30.2181 23.1263C30.1021 23.2372 30.0441 23.4036 30.0441 23.57C30.0441 24.0136 30.4501 24.2909 30.7402 24.2909H34.7427C35.0907 24.2909 35.3807 24.0136 35.3807 23.6254C35.3807 23.2927 35.0907 22.9599 34.7427 22.9599H32.0163L35.1487 18.8004C35.3227 18.5231 35.3807 18.3568 35.3807 18.1904ZM24.2434 21.5734C24.2434 22.4608 23.8374 23.0154 22.9093 23.0154C21.9811 23.0154 21.5751 22.4608 21.5751 21.5734V18.8004H22.9673C24.0694 18.8004 24.2434 19.4105 24.2434 20.0206V21.5734ZM25.7516 20.0206C25.7516 18.5231 24.9395 17.5249 22.9673 17.5249H21.5751V15.5283C21.5751 15.1401 21.227 14.8073 20.821 14.8073C20.415 14.8073 20.0669 15.1401 20.0669 15.5283V21.5734C20.0669 23.0708 20.937 24.2909 22.9093 24.2909C24.8815 24.2909 25.7516 23.0708 25.7516 21.5734V20.0206ZM41.2974 17.4694C40.8914 17.4694 40.5434 17.8022 40.5434 18.1904V21.5734C40.5434 22.4608 40.1373 23.0154 39.2092 23.0154C38.2811 23.0154 37.875 22.4608 37.875 21.5734V18.1904C37.875 17.8022 37.527 17.4694 37.1209 17.4694C36.7149 17.4694 36.3669 17.8022 36.3669 18.1904V21.5734C36.3669 23.0708 37.237 24.2909 39.2092 24.2909C41.1814 24.2909 42.0515 23.0708 42.0515 21.5734V18.1904C42.0515 17.8022 41.7035 17.4694 41.2974 17.4694ZM52.8408 20.1869C52.8408 18.6895 52.1447 17.4694 50.1145 17.4694C49.2444 17.4694 48.6063 17.7467 48.1423 18.1349C47.7362 17.6912 47.0981 17.4694 46.228 17.4694C44.2558 17.4694 43.5017 18.6895 43.5017 20.1869V23.57C43.5017 23.9582 43.8497 24.2909 44.2558 24.2909C44.6618 24.2909 45.0099 23.9582 45.0099 23.57V20.1869C45.0099 19.2996 45.2999 18.745 46.228 18.745C47.1561 18.745 47.4462 19.2996 47.4462 20.1869V23.57C47.4462 23.9582 47.7942 24.2909 48.2003 24.2909C48.6063 24.2909 48.9543 23.9582 48.9543 23.57V20.1869C48.9543 19.2996 49.2444 18.745 50.1725 18.745C51.1006 18.745 51.3906 19.2996 51.3906 20.1869V23.57C51.3906 23.9582 51.7387 24.2909 52.1447 24.2909C52.5508 24.2909 52.8988 23.9582 52.8988 23.57L52.8408 20.1869ZM6.20326 17.4694C6.72532 17.8576 7.47941 17.7467 7.88546 17.1921L9.27763 15.3619C9.68367 14.8628 9.56766 14.1418 8.98759 13.7536C8.46553 13.4209 7.76945 13.5318 7.3634 14.0309L5.97123 15.8611C5.56518 16.4157 5.6812 17.0812 6.20326 17.4694ZM12.642 14.8628C12.12 14.4746 11.3659 14.5855 10.9598 15.1401L5.33316 22.5162C4.98511 23.0154 5.10113 23.7363 5.62319 24.1246C6.14525 24.5128 6.89934 24.4019 7.30539 23.8473L12.9321 16.4711C13.2801 15.972 13.1641 15.251 12.642 14.8628ZM5.6812 14.3082C6.08725 13.8091 5.97123 13.0881 5.39116 12.6999C4.8691 12.3117 4.17302 12.4226 3.76697 12.9217C3.36092 13.4209 3.47693 14.1418 4.057 14.53C4.57907 14.9183 5.33316 14.8073 5.6812 14.3082ZM14.2082 24.4573C13.6862 24.0691 12.9321 24.18 12.526 24.7346C12.12 25.2338 12.236 25.9547 12.816 26.343C13.3381 26.7312 14.0922 26.6202 14.4982 26.0657C14.8463 25.5111 14.7303 24.7901 14.2082 24.4573ZM12.004 21.518C11.4819 21.1297 10.7278 21.2407 10.3217 21.7953L8.92958 23.57C8.52354 24.0691 8.63955 24.7901 9.21962 25.1783C9.74168 25.5665 10.4958 25.4556 10.9018 24.901L12.294 23.0708C12.642 22.5717 12.526 21.8507 12.004 21.518Z" fill="black"/>
</svg>
