<svg width="62" height="25" viewBox="0 0 62 25" fill="none" xmlns="http://www.w3.org/2000/svg">
<path d="M28.7429 11.9583V19.0343H26.4821V1.56067H32.4756C33.9946 1.56067 35.2898 2.0636 36.3496 3.06944C37.4329 4.07529 37.9746 5.30336 37.9746 6.75365C37.9746 8.23903 37.4329 9.46709 36.3496 10.4612C35.3016 11.4554 34.0064 11.9466 32.4756 11.9466H28.7429V11.9583ZM28.7429 3.71272V9.80627H32.5227C33.4176 9.80627 34.1712 9.50218 34.76 8.90569C35.3605 8.3092 35.6666 7.58405 35.6666 6.76534C35.6666 5.95832 35.3605 5.24488 34.76 4.64839C34.1712 4.02851 33.4294 3.72441 32.5227 3.72441H28.7429V3.71272Z" fill="white"/>
<path d="M43.8857 6.68347C45.5578 6.68347 46.8766 7.12792 47.8421 8.0168C48.8077 8.90569 49.2905 10.1221 49.2905 11.6659V19.0343H47.1356V17.3735H47.0414C46.1112 18.7419 44.863 19.4203 43.3087 19.4203C41.9781 19.4203 40.8713 19.0343 39.9764 18.2507C39.0815 17.4671 38.634 16.4963 38.634 15.3267C38.634 14.087 39.105 13.1045 40.047 12.3794C40.989 11.6425 42.249 11.28 43.815 11.28C45.1574 11.28 46.2643 11.5256 47.1238 12.0168V11.5022C47.1238 10.7186 46.8177 10.0636 46.1936 9.51388C45.5695 8.96417 44.8395 8.69516 44.0034 8.69516C42.7435 8.69516 41.7426 9.22148 41.0126 10.2858L39.0226 9.04604C40.1177 7.46709 41.7426 6.68347 43.8857 6.68347ZM40.9655 15.3618C40.9655 15.9466 41.2127 16.4378 41.7191 16.8238C42.2136 17.2098 42.8024 17.4086 43.4736 17.4086C44.4274 17.4086 45.2752 17.0577 46.017 16.356C46.7588 15.6542 47.1356 14.8355 47.1356 13.8881C46.4291 13.3384 45.4518 13.0577 44.1918 13.0577C43.2734 13.0577 42.508 13.28 41.8957 13.7127C41.2716 14.1688 40.9655 14.7186 40.9655 15.3618Z" fill="white"/>
<path d="M61.5837 7.06946L54.0476 24.2858H51.7161L54.5186 18.2624L49.5495 7.06946H52.0105L55.5901 15.6542H55.6372L59.1227 7.06946H61.5837Z" fill="white"/>
<path d="M19.7504 10.5314C19.7504 9.7992 19.6844 9.09861 19.562 8.42493H10.0854V12.2846L15.5431 12.2857C15.3218 13.57 14.6094 14.6647 13.5178 15.3945V17.8986H16.7666C18.6635 16.1547 19.7504 13.577 19.7504 10.5314Z" fill="#4285F4"/>
<path d="M13.519 15.3946C12.6147 16.0004 11.4501 16.3548 10.0877 16.3548C7.45599 16.3548 5.22344 14.5934 4.42391 12.2191H1.07272V14.8016C2.73301 18.0741 6.14542 20.3197 10.0877 20.3197C12.8125 20.3197 15.1015 19.4296 16.7677 17.8975L13.519 15.3946Z" fill="#34A853"/>
<path d="M4.10832 10.3034C4.10832 9.6367 4.22018 8.99226 4.42389 8.38641V5.80396H1.07271C0.386221 7.15717 0 8.68465 0 10.3034C0 11.9221 0.387398 13.4496 1.07271 14.8028L4.42389 12.2203C4.22018 11.6145 4.10832 10.97 4.10832 10.3034Z" fill="#FABB05"/>
<path d="M10.0877 4.25067C11.5749 4.25067 12.9067 4.75945 13.9582 5.7536L16.8372 2.89629C15.0886 1.27875 12.8089 0.285767 10.0877 0.285767C6.1466 0.285767 2.73301 2.53138 1.07272 5.80389L4.42391 8.38634C5.22344 6.01208 7.45599 4.25067 10.0877 4.25067Z" fill="#E94235"/>
</svg>
