<svg width="57" height="38" viewBox="0 0 57 38" fill="none" xmlns="http://www.w3.org/2000/svg">
<mask id="mask0_22_4577" style="mask-type:alpha" maskUnits="userSpaceOnUse" x="0" y="0" width="57" height="38">
<rect y="0.0942383" width="56.4254" height="37.6169" fill="white"/>
</mask>
<g mask="url(#mask0_22_4577)">
<path fill-rule="evenodd" clip-rule="evenodd" d="M6.0286 24.5626H3.52658V13.025H6.0286V24.5626ZM12.2751 13.0251H9.82738C9.82738 15.1483 8.90498 17.097 7.29677 18.372L6.32701 19.1406L10.0845 24.5631H13.1739L9.71651 19.5736C11.3554 17.8465 12.2751 15.5229 12.2751 13.0251ZM16.2659 24.5599H13.903V13.0276H16.2659V24.5599ZM23.4049 16.5817V17.092C22.7673 16.6317 21.9977 16.3612 21.1678 16.3612C18.9711 16.3612 17.1904 18.2458 17.1904 20.5706C17.1904 22.8953 18.9711 24.7799 21.1678 24.7799C21.9977 24.7799 22.7673 24.5094 23.4049 24.0492V24.559H25.6617V16.5817H23.4049ZM23.398 20.571C23.398 21.7045 22.4824 22.6235 21.353 22.6235C20.2237 22.6235 19.3081 21.7045 19.3081 20.571C19.3081 19.4375 20.2237 18.5187 21.353 18.5187C22.4824 18.5187 23.398 19.4375 23.398 20.571ZM47.214 17.092V16.5817H49.4708V24.559H47.214V24.0492C46.5764 24.5094 45.8069 24.7799 44.9768 24.7799C42.7801 24.7799 40.9994 22.8953 40.9994 20.5706C40.9994 18.2458 42.7801 16.3612 44.9768 16.3612C45.8069 16.3612 46.5764 16.6317 47.214 17.092ZM45.1621 22.6235C46.2915 22.6235 47.207 21.7045 47.207 20.571C47.207 19.4375 46.2915 18.5187 45.1621 18.5187C44.0326 18.5187 43.1172 19.4375 43.1172 20.571C43.1172 21.7045 44.0326 22.6235 45.1621 22.6235ZM50.4502 23.2292C50.4502 22.4013 51.0843 21.7303 51.8664 21.7303C52.6485 21.7303 53.2827 22.4013 53.2827 23.2292C53.2827 24.0568 52.6485 24.7279 51.8664 24.7279C51.0843 24.7279 50.4502 24.0568 50.4502 23.2292ZM36.989 16.3674C36.0875 16.3674 35.2343 16.6636 34.6639 17.4808V16.5824H32.4168V24.5593H34.6915V20.3672C34.6915 19.1541 35.4601 18.56 36.3856 18.56C37.3775 18.56 37.9477 19.1871 37.9477 20.3506V24.5593H40.2018V19.4863C40.2018 17.6299 38.8071 16.3674 36.989 16.3674ZM29.1529 16.5821V17.6211C29.6053 16.9978 30.4483 16.5825 31.3647 16.5825V18.9038L31.3592 18.9036L31.3522 18.9033L31.3452 18.9029L31.3379 18.9028C30.445 18.9028 29.1581 19.5782 29.1581 20.8348V24.5593H26.8423V16.5821H29.1529Z" fill="#17120F"/>
</g>
</svg>
