<svg width="39" height="25" viewBox="0 0 39 25" fill="none" xmlns="http://www.w3.org/2000/svg">
<path d="M24.2914 2.99814L14.0595 3.03333L14.3696 21.7653L24.6015 21.7301L24.2914 2.99814Z" fill="#FF5F00"/>
<path d="M14.733 12.4368C14.6697 8.62688 16.3764 5.2416 19.0497 3.04575C17.0318 1.46233 14.5021 0.510171 11.7599 0.519563C5.26333 0.541813 0.0959633 5.89373 0.205523 12.4866C0.315084 19.0794 5.65973 24.3953 12.1563 24.3731C14.8985 24.3637 17.3963 23.3943 19.3613 21.7973C16.6159 19.6531 14.7963 16.2468 14.733 12.4368Z" fill="#EB001B"/>
<path d="M38.4554 12.2765C38.565 18.8693 33.3976 24.2212 26.9011 24.2435C24.1588 24.2529 21.6291 23.3007 19.6113 21.7173C22.3172 19.5214 23.9913 16.1362 23.928 12.3262C23.8647 8.5163 22.0456 5.14309 19.2997 2.9658C21.2646 1.36875 23.7624 0.399365 26.5047 0.389973C33.0012 0.367723 38.3464 5.71676 38.4554 12.2765Z" fill="#F79E1B"/>
</svg>
