<svg width="182" height="32" viewBox="0 0 182 32" fill="none" xmlns="http://www.w3.org/2000/svg">
<g clip-path="url(#clip0_22_5204)">
<path d="M125.811 25.1136V24.641C125.937 24.6724 126.065 24.6901 126.194 24.6937C126.783 24.6937 126.888 24.2088 127.044 23.7601L125.732 20.0376H126.337L127.35 22.8875L128.387 20.0376H128.879L127.396 24.1854C127.32 24.4434 127.189 24.6823 127.014 24.8859C126.918 24.9913 126.799 25.0724 126.665 25.1223C126.532 25.1722 126.389 25.1894 126.247 25.1726C126.1 25.1717 125.953 25.1513 125.811 25.1122V25.1136ZM174.608 21.9373C174.584 21.6898 174.61 21.4399 174.686 21.2031C174.763 20.9663 174.887 20.7479 175.051 20.5612C175.216 20.3746 175.417 20.2238 175.642 20.1182C175.866 20.0127 176.111 19.9547 176.36 19.9478C177.537 19.9478 178.045 20.9337 178.015 21.9847H175.264C175.246 22.2802 175.299 22.576 175.419 22.8463C175.514 23.0213 175.654 23.1672 175.825 23.2684C175.996 23.3696 176.19 23.4222 176.389 23.4205C176.615 23.4246 176.835 23.3559 177.018 23.2242C177.2 23.0927 177.336 22.9055 177.404 22.6905L177.953 22.8017C177.837 23.1347 177.619 23.4222 177.328 23.6224C177.04 23.8225 176.694 23.9249 176.341 23.9144C176.093 23.9123 175.848 23.8579 175.623 23.7548C175.397 23.6515 175.195 23.5019 175.032 23.3156C174.867 23.1292 174.744 22.9104 174.672 22.6733C174.598 22.4363 174.575 22.1864 174.605 21.94L174.608 21.9373ZM175.294 21.5545H177.375C177.393 21.4103 177.38 21.264 177.337 21.1251C177.295 20.9864 177.224 20.8581 177.128 20.7489C177.032 20.6398 176.914 20.5521 176.782 20.4917C176.65 20.4312 176.506 20.3995 176.361 20.3984C176.068 20.4137 175.792 20.5431 175.593 20.759C175.393 20.9749 175.286 21.26 175.295 21.5537L175.294 21.5545ZM170.947 23.2696C170.698 22.8722 170.574 22.4103 170.588 21.942C170.588 20.9953 171.057 19.9526 172.153 19.9526C172.373 19.9522 172.589 20.0084 172.781 20.1157C172.974 20.2229 173.134 20.3777 173.25 20.5652V18.7217H173.831V23.8383H173.302V23.168H173.287C173.188 23.3972 173.02 23.591 172.809 23.7241C172.598 23.8573 172.351 23.9236 172.101 23.9144C171.869 23.9144 171.641 23.8545 171.439 23.7407C171.237 23.6268 171.067 23.4626 170.947 23.2641V23.2696ZM171.438 20.8904C171.278 21.1933 171.202 21.5329 171.215 21.8748C171.215 22.4923 171.378 23.4274 172.193 23.4274C172.357 23.4224 172.519 23.3788 172.666 23.2997C172.811 23.2207 172.935 23.1086 173.03 22.9725C173.188 22.7459 173.267 22.4727 173.251 22.1966V21.5914C173.268 21.3262 173.201 21.0624 173.061 20.8369C172.962 20.7046 172.834 20.5974 172.686 20.5237C172.539 20.4501 172.375 20.4122 172.211 20.4129C172.052 20.4162 171.896 20.4618 171.76 20.5448C171.624 20.6278 171.513 20.7454 171.436 20.8856L171.438 20.8904ZM166.557 22.7626C166.56 22.5383 166.628 22.3196 166.752 22.1329C166.876 21.9461 167.052 21.7991 167.258 21.7095C167.722 21.5343 168.218 21.4581 168.712 21.4859H169.203V21.322C169.203 20.6578 168.917 20.4046 168.244 20.4046C167.763 20.4046 167.31 20.5542 167.207 21.0757L166.663 20.9864C166.767 20.1954 167.604 19.9484 168.297 19.9484C168.507 19.9242 168.719 19.9449 168.92 20.0092C169.122 20.0736 169.306 20.1801 169.462 20.3216C169.723 20.6811 169.835 21.1264 169.777 21.5662V23.0349C169.767 23.3036 169.794 23.5725 169.859 23.8336H169.277L169.209 23.1234C169.093 23.3733 168.904 23.5822 168.667 23.7221C168.43 23.8622 168.156 23.9268 167.881 23.9075C167.718 23.9276 167.552 23.913 167.394 23.8648C167.236 23.8166 167.09 23.7359 166.965 23.6278C166.841 23.5197 166.74 23.3867 166.67 23.2373C166.6 23.0879 166.561 22.9256 166.557 22.7605V22.7626ZM167.183 22.7928C167.183 23.2633 167.587 23.4561 168.007 23.4561C168.17 23.4517 168.33 23.4148 168.479 23.3477C168.628 23.2806 168.762 23.1846 168.874 23.0652C168.986 22.9459 169.073 22.8057 169.13 22.6526C169.187 22.4994 169.212 22.3366 169.206 22.1733V21.9283H168.722C168.124 21.9283 167.183 22.0107 167.183 22.7969V22.7928ZM163.212 23.1859L162.995 23.8336H162.709V18.7198H163.289V20.6743H163.319C163.412 20.4569 163.568 20.2718 163.766 20.1428C163.963 20.0139 164.196 19.9466 164.432 19.9499C164.661 19.9523 164.886 20.0097 165.09 20.1171C165.292 20.2245 165.467 20.3789 165.597 20.5672C165.841 20.9638 165.965 21.422 165.956 21.8872C165.956 22.8477 165.493 23.9083 164.375 23.9083C164.134 23.9046 163.898 23.8358 163.692 23.709C163.487 23.5823 163.32 23.4025 163.209 23.1886L163.212 23.1859ZM163.293 21.6539V22.1102C163.274 22.4226 163.349 22.7337 163.511 23.002C163.604 23.1344 163.727 23.2427 163.87 23.318C164.013 23.3933 164.171 23.4333 164.333 23.4349C165.109 23.4349 165.332 22.6062 165.332 21.9798C165.332 21.3534 165.14 20.4115 164.335 20.4115C164.034 20.4436 163.757 20.5913 163.563 20.8237C163.37 21.0558 163.274 21.3542 163.296 21.656L163.293 21.6539ZM158.509 22.7584C158.512 22.5342 158.58 22.3156 158.704 22.1288C158.829 21.9419 159.003 21.795 159.209 21.7053C159.673 21.5298 160.169 21.4536 160.664 21.4817H161.156V21.3199C161.156 20.6557 160.87 20.4026 160.196 20.4026C159.716 20.4026 159.265 20.5522 159.159 21.0736L158.615 20.9843C158.72 20.1933 159.555 19.9464 160.249 19.9464C160.458 19.922 160.67 19.9426 160.872 20.007C161.073 20.0714 161.258 20.1779 161.415 20.3196C161.673 20.6796 161.786 21.1245 161.727 21.5641V23.0336C161.716 23.3023 161.744 23.5713 161.81 23.8321H161.23L161.161 23.1221C161.046 23.3719 160.857 23.5808 160.62 23.7208C160.383 23.8609 160.108 23.9255 159.834 23.9062C159.67 23.9263 159.503 23.9118 159.345 23.8635C159.187 23.8153 159.041 23.7344 158.917 23.6263C158.792 23.5181 158.691 23.3847 158.621 23.2352C158.551 23.0856 158.512 22.923 158.51 22.7578L158.509 22.7584ZM159.134 22.7886C159.134 23.2593 159.537 23.4521 159.958 23.4521C160.121 23.4477 160.282 23.4109 160.431 23.3439C160.58 23.2768 160.714 23.1808 160.826 23.0614C160.937 22.942 161.025 22.8016 161.082 22.6483C161.139 22.495 161.165 22.3319 161.159 22.1685V21.9229H160.674C160.076 21.9229 159.135 22.0059 159.135 22.7921L159.134 22.7886ZM153.922 22.4518L154.497 22.3256C154.591 22.6466 154.793 22.9253 155.068 23.1145C155.344 23.3038 155.677 23.392 156.01 23.3643C156.335 23.3761 156.655 23.2874 156.927 23.1105C157.024 23.0306 157.103 22.9304 157.158 22.8167C157.212 22.7031 157.241 22.579 157.241 22.4532C157.241 21.9379 156.816 21.7301 156.368 21.6176L155.517 21.4117C155.177 21.3595 154.857 21.2174 154.592 21.0001C154.46 20.8805 154.353 20.7343 154.281 20.571C154.21 20.4078 154.172 20.2312 154.173 20.0527C154.173 19.0675 155.024 18.6422 155.91 18.6422C156.309 18.62 156.703 18.7309 157.032 18.9573C157.36 19.1836 157.605 19.5127 157.725 19.8929L157.143 20.05C157.064 19.7817 156.899 19.5473 156.672 19.3838C156.445 19.2204 156.171 19.1371 155.891 19.1471C155.407 19.1471 154.794 19.401 154.794 19.9615C154.794 20.5356 155.241 20.662 155.719 20.7758L156.484 20.9672C156.822 21.0212 157.142 21.1574 157.415 21.3638C157.568 21.4842 157.691 21.6385 157.774 21.8143C157.857 21.9902 157.899 22.183 157.895 22.3778C157.897 22.6036 157.847 22.8268 157.747 23.0295C157.647 23.2321 157.502 23.4085 157.321 23.544C156.927 23.808 156.46 23.9388 155.985 23.9173C155.524 23.9533 155.066 23.8275 154.686 23.5613C154.308 23.2952 154.035 22.9056 153.912 22.4594L153.922 22.4518ZM147.652 21.9085C147.62 21.6711 147.639 21.4298 147.706 21.2C147.774 20.9702 147.888 20.7572 148.043 20.5744C148.197 20.3917 148.389 20.2433 148.604 20.139C148.819 20.0347 149.055 19.9767 149.293 19.9687C149.533 19.9606 149.771 20.0027 149.994 20.0924C150.215 20.182 150.416 20.3172 150.582 20.4891C150.749 20.661 150.878 20.866 150.96 21.0907C151.043 21.3155 151.078 21.5549 151.062 21.794C151.062 21.835 151.057 21.8756 151.052 21.916C151.079 22.1646 151.053 22.416 150.977 22.6543C150.9 22.8924 150.776 23.1121 150.61 23.2994C150.444 23.4866 150.242 23.6373 150.014 23.7416C149.788 23.846 149.542 23.9018 149.292 23.9056C148.157 23.9056 147.652 22.91 147.652 21.9106V21.9085ZM148.489 20.9618C148.354 21.2589 148.289 21.5825 148.297 21.9085C148.285 22.2663 148.359 22.6219 148.513 22.9451C148.601 23.0969 148.728 23.2219 148.882 23.3065C149.035 23.3911 149.209 23.432 149.384 23.4249C149.559 23.4179 149.729 23.363 149.875 23.2663C150.021 23.1697 150.137 23.0348 150.213 22.8765C150.355 22.5734 150.421 22.2406 150.406 21.9064C150.425 21.5449 150.341 21.1854 150.165 20.8691C150.075 20.7326 149.954 20.6205 149.81 20.5428C149.666 20.465 149.505 20.4242 149.342 20.4238C149.165 20.4251 148.99 20.4759 148.84 20.5704C148.688 20.6649 148.568 20.7994 148.489 20.9589V20.9618ZM144.015 21.9393C144.015 20.9555 144.506 19.9499 145.633 19.9499C145.998 19.94 146.351 20.071 146.622 20.3156C146.893 20.5602 147.06 20.8997 147.086 21.2635L146.551 21.3597C146.55 21.1191 146.455 20.8882 146.287 20.7166C146.118 20.5452 145.889 20.4467 145.648 20.4423C144.858 20.4423 144.635 21.2712 144.635 21.905C144.635 22.5183 144.821 23.4143 145.612 23.4143C146.179 23.4143 146.455 23.0027 146.552 22.4888L147.088 22.5849C147.056 22.9489 146.888 23.2872 146.617 23.5331C146.348 23.779 145.994 23.9145 145.629 23.9131C144.501 23.9075 144.015 22.9285 144.015 21.9387V21.9393ZM135.991 22.7626C135.993 22.5383 136.061 22.3196 136.185 22.1329C136.31 21.9461 136.484 21.7991 136.69 21.7095C137.154 21.5343 137.65 21.4581 138.145 21.4859H138.637V21.322C138.637 20.6572 138.351 20.4046 137.677 20.4046C137.197 20.4046 136.743 20.5542 136.639 21.0757L136.096 20.9864C136.201 20.1954 137.036 19.9484 137.73 19.9484C137.94 19.924 138.153 19.9447 138.353 20.009C138.554 20.0733 138.739 20.18 138.896 20.3216C139.155 20.6814 139.268 21.1266 139.21 21.5662V23.0356C139.198 23.3044 139.226 23.5734 139.292 23.8342H138.711L138.642 23.1242C138.527 23.3741 138.338 23.5831 138.101 23.7232C137.864 23.8632 137.591 23.9279 137.316 23.9083C137.151 23.9283 136.986 23.9136 136.828 23.8652C136.67 23.8167 136.523 23.7356 136.398 23.6272C136.273 23.5186 136.172 23.3851 136.102 23.2352C136.032 23.0853 135.995 22.9225 135.992 22.7571L135.991 22.7626ZM136.618 22.7928C136.618 23.2627 137.021 23.4561 137.44 23.4561C137.603 23.4519 137.764 23.4151 137.913 23.3481C138.063 23.2811 138.197 23.1851 138.308 23.0658C138.421 22.9464 138.508 22.8061 138.565 22.6528C138.622 22.4997 138.647 22.3367 138.641 22.1733V21.927H138.157C137.558 21.927 136.619 22.0072 136.619 22.7886L136.618 22.7928ZM180.752 23.8355V18.7204H181.333V23.8363L180.752 23.8355ZM178.962 23.8355V18.7204H179.543V23.8363L178.962 23.8355ZM142.664 23.8355V21.4941C142.686 21.2556 142.651 21.0153 142.56 20.7936C142.489 20.6874 142.392 20.6004 142.279 20.5406C142.165 20.4807 142.04 20.4499 141.911 20.4506C141.761 20.4526 141.612 20.4878 141.478 20.554C141.342 20.6202 141.222 20.7156 141.129 20.8335C140.908 21.1263 140.801 21.4895 140.83 21.855V23.8403H140.248V20.052H140.798V20.7525H140.81C140.908 20.5185 141.071 20.3182 141.281 20.1762C141.49 20.0342 141.737 19.957 141.99 19.9539C142.205 19.9465 142.419 19.9973 142.608 20.1009C142.796 20.2047 142.954 20.3575 143.063 20.5433C143.221 20.9224 143.282 21.3345 143.242 21.7432V23.8396L142.664 23.8355ZM131.691 23.8355V18.7204H133.622C133.99 18.6852 134.359 18.7692 134.675 18.9599C134.842 19.069 134.978 19.2184 135.073 19.3943C135.166 19.5701 135.214 19.7669 135.212 19.9663C135.223 20.2337 135.137 20.4962 134.973 20.7068C134.807 20.9173 134.573 21.0622 134.31 21.1154V21.1277C134.558 21.184 134.786 21.3087 134.966 21.4878C135.148 21.6669 135.275 21.8932 135.334 22.1408C135.392 22.3885 135.381 22.6479 135.301 22.8893C135.22 23.1308 135.073 23.3447 134.877 23.5069C134.51 23.7663 134.062 23.8829 133.617 23.8348L131.691 23.8355ZM132.331 23.2922H133.584C133.873 23.317 134.163 23.2446 134.407 23.0864C134.51 23.0055 134.593 22.9012 134.65 22.7819C134.706 22.6627 134.733 22.532 134.728 22.4003C134.729 22.2478 134.697 22.0969 134.632 21.9586C134.567 21.8205 134.473 21.6986 134.355 21.6018C134.099 21.4426 133.795 21.3751 133.495 21.4104H132.329L132.331 23.2922ZM132.331 20.913H133.323C133.647 20.9532 133.973 20.886 134.254 20.7216C134.356 20.6417 134.438 20.5396 134.494 20.4234C134.549 20.3071 134.578 20.1796 134.576 20.0507C134.583 19.9128 134.551 19.7757 134.483 19.6555C134.416 19.5353 134.315 19.4368 134.193 19.3715C133.973 19.2656 133.728 19.2217 133.485 19.2445H132.328L132.331 20.913ZM121.7 23.8369V18.7204H123.632C124 18.6856 124.369 18.7693 124.685 18.9592C124.852 19.0683 124.989 19.2178 125.082 19.3939C125.176 19.57 125.224 19.7669 125.221 19.9663C125.231 20.2336 125.147 20.496 124.981 20.7064C124.816 20.9169 124.582 21.0617 124.32 21.1147V21.1277C124.621 21.1833 124.893 21.3444 125.087 21.5822C125.281 21.82 125.384 22.119 125.378 22.4257C125.387 22.6322 125.348 22.838 125.262 23.0261C125.176 23.2142 125.047 23.3793 124.885 23.5076C124.52 23.7673 124.072 23.8843 123.626 23.8369H121.7ZM122.341 23.2935H123.594C123.884 23.3187 124.173 23.2462 124.417 23.0878C124.521 23.0071 124.604 22.9028 124.66 22.7834C124.716 22.6641 124.743 22.5334 124.738 22.4017C124.739 22.2492 124.707 22.0983 124.642 21.9601C124.578 21.8218 124.483 21.6999 124.365 21.6031C124.107 21.444 123.804 21.3764 123.503 21.4111H122.338L122.341 23.2935ZM122.341 20.9143H123.333C123.656 20.9549 123.984 20.8874 124.265 20.7223C124.367 20.6428 124.449 20.5409 124.504 20.4246C124.56 20.3084 124.588 20.1809 124.586 20.052C124.594 19.9141 124.561 19.7769 124.494 19.6565C124.426 19.5362 124.325 19.4376 124.204 19.3721C123.984 19.2668 123.739 19.2234 123.496 19.2466H122.336L122.341 20.9143Z" fill="#18191F"/>
<path d="M114.707 30.1741C114.69 30.1741 114.674 30.1708 114.658 30.1643C114.642 30.1579 114.628 30.1483 114.616 30.1364C114.604 30.1243 114.595 30.1102 114.588 30.0945C114.582 30.0788 114.578 30.0621 114.578 30.0451V12.4214C114.578 12.387 114.592 12.354 114.616 12.3297C114.641 12.3054 114.674 12.2917 114.708 12.2917C114.742 12.2917 114.775 12.3054 114.8 12.3297C114.824 12.354 114.838 12.387 114.838 12.4214V30.0458C114.837 30.08 114.824 30.1128 114.8 30.1371C114.776 30.1614 114.743 30.1751 114.709 30.1755L114.707 30.1741Z" fill="#18191F"/>
<path d="M69.2065 24.9284C68.4093 24.1307 67.9616 23.049 67.9616 21.9211C67.9616 20.7933 68.4093 19.7115 69.2065 18.9138L72.0486 16.0709C72.1418 15.9807 72.2667 15.9307 72.3965 15.9318C72.5261 15.9328 72.6502 15.9847 72.7419 16.0765C72.8336 16.1682 72.8857 16.2922 72.8868 16.4219C72.8881 16.5517 72.8383 16.6766 72.7481 16.77L69.9061 19.6136C69.3036 20.2269 68.9676 21.0534 68.9712 21.9132C68.975 22.7731 69.3181 23.5968 69.9258 24.2048C70.5336 24.8129 71.3569 25.1562 72.2164 25.16C73.0761 25.1638 73.9024 24.8279 74.5156 24.2252L75.5765 23.1639C75.6225 23.1178 75.6772 23.0812 75.7374 23.0562C75.7975 23.0313 75.862 23.0185 75.927 23.0184C75.9922 23.0184 76.0567 23.0312 76.1169 23.0561C76.177 23.081 76.2317 23.1175 76.2778 23.1635C76.3239 23.2096 76.3604 23.2643 76.3854 23.3244C76.4103 23.3845 76.4231 23.4491 76.4232 23.5142C76.4232 23.5794 76.4104 23.6438 76.3855 23.704C76.3607 23.7643 76.3241 23.819 76.2782 23.865L75.2171 24.9276C74.4198 25.7247 73.3387 26.1725 72.2115 26.1725C71.0843 26.1725 70.0032 25.7247 69.2059 24.9276L69.2065 24.9284ZM91.9513 26.1722C91.8846 26.1724 91.8186 26.1594 91.7568 26.134C91.6951 26.1086 91.6389 26.0713 91.5916 26.0243C91.5444 25.9772 91.5067 25.9213 91.481 25.8596C91.4552 25.7981 91.442 25.732 91.4418 25.6653C91.4418 25.5983 91.4549 25.5319 91.4804 25.47C91.506 25.4082 91.5436 25.352 91.5909 25.3045C91.6381 25.2573 91.6943 25.2197 91.7563 25.194C91.8182 25.1685 91.8845 25.1554 91.9513 25.1554H97.3193C97.454 25.1554 97.583 25.2089 97.6782 25.3042C97.7734 25.3994 97.8269 25.5284 97.8269 25.6632C97.8269 25.7978 97.7734 25.927 97.6782 26.0221C97.583 26.1173 97.454 26.1708 97.3193 26.1708L91.9513 26.1722ZM40.1418 26.1036C40.0239 26.052 39.9295 25.9583 39.877 25.8408C39.8473 25.781 39.8309 25.7153 39.8294 25.6484C39.8278 25.5814 39.841 25.5151 39.8681 25.4539L43.1107 16.7899C43.1515 16.6945 43.2204 16.6139 43.3081 16.5587C43.3958 16.5034 43.4983 16.4762 43.6018 16.4805C43.704 16.4729 43.8056 16.5002 43.8905 16.5576C43.9753 16.6148 44.0384 16.6992 44.0696 16.7967L47.3135 25.4629C47.3393 25.5217 47.3525 25.5852 47.3525 25.6495C47.3525 25.7137 47.3393 25.7772 47.3135 25.836C47.2648 25.9564 47.171 26.0529 47.0521 26.105L47.0021 26.118L46.8829 26.1323C46.7783 26.1395 46.6743 26.1116 46.5874 26.053C46.5005 25.9946 46.4355 25.9088 46.4027 25.8093L43.6073 18.3437L40.8009 25.81C40.7688 25.9073 40.706 25.9914 40.6218 26.0498C40.5377 26.1081 40.4368 26.1373 40.3345 26.1331L40.1418 26.1036ZM103.396 25.9855C103.351 25.9407 103.315 25.8872 103.291 25.8284C103.267 25.7694 103.254 25.7063 103.254 25.6426V17.4299H100.604C100.538 17.4306 100.472 17.4171 100.411 17.3904C100.351 17.3636 100.297 17.3243 100.253 17.2749C100.164 17.181 100.115 17.0564 100.115 16.9271C100.115 16.8627 100.128 16.7988 100.152 16.7393C100.177 16.6797 100.213 16.6257 100.258 16.5801C100.304 16.5346 100.358 16.4985 100.417 16.474C100.477 16.4495 100.541 16.4369 100.605 16.4372H106.884C106.948 16.4372 107.012 16.4498 107.071 16.4742C107.131 16.4989 107.185 16.5349 107.23 16.5802C107.276 16.6257 107.312 16.6796 107.336 16.7391C107.361 16.7984 107.374 16.8622 107.374 16.9264C107.374 17.0559 107.325 17.1805 107.236 17.2749C107.192 17.3233 107.137 17.3619 107.077 17.3883C107.017 17.4147 106.951 17.4285 106.885 17.4286H104.237V25.6399C104.237 25.737 104.208 25.8319 104.153 25.9123C104.099 25.9929 104.022 26.0555 103.932 26.0922C103.842 26.1288 103.743 26.138 103.648 26.1186C103.553 26.0992 103.465 26.0519 103.397 25.9828L103.396 25.9855ZM87.9132 25.9855C87.868 25.9407 87.8321 25.8872 87.8077 25.8284C87.7834 25.7694 87.7709 25.7063 87.7712 25.6426V18.4124L85.0842 22.1986C85.0417 22.2671 84.9822 22.323 84.9112 22.3609C84.8402 22.3988 84.7605 22.4175 84.6802 22.4148C84.592 22.4212 84.5038 22.4039 84.4247 22.3645C84.3456 22.3252 84.2783 22.2652 84.2303 22.1911L81.5508 18.4247V25.6412C81.5508 25.705 81.538 25.7683 81.5134 25.8272C81.4886 25.8862 81.4524 25.9395 81.4068 25.9842C81.3129 26.0733 81.1884 26.1229 81.059 26.1229C80.9296 26.1229 80.8053 26.0733 80.7114 25.9842C80.6623 25.9398 80.6233 25.8856 80.5966 25.8251C80.5701 25.7645 80.5566 25.6991 80.557 25.633V16.9744C80.5559 16.8971 80.5742 16.8208 80.6102 16.7524C80.6461 16.684 80.6985 16.6257 80.7628 16.5827L80.7943 16.5519C80.8452 16.5105 80.9042 16.4805 80.9676 16.4639C81.0309 16.4473 81.0971 16.4446 81.1617 16.4557C81.2262 16.4669 81.2876 16.4917 81.3418 16.5288C81.3958 16.5657 81.4414 16.6138 81.4753 16.6698L84.6665 21.0914L87.8426 16.6718C87.8787 16.6183 87.9262 16.5734 87.9817 16.5401C88.0371 16.5069 88.0993 16.4863 88.1635 16.4798C88.2881 16.4588 88.4161 16.4832 88.5243 16.5484L88.5538 16.5717C88.6119 16.6218 88.6593 16.6831 88.6933 16.7519C88.7272 16.8208 88.7469 16.8957 88.7513 16.9724V25.6316C88.7514 25.696 88.7387 25.7597 88.7143 25.8192C88.6897 25.8786 88.6535 25.9327 88.6081 25.9782C88.5626 26.0236 88.5086 26.0598 88.4491 26.0843C88.3897 26.1089 88.326 26.1215 88.2616 26.1215C88.1973 26.1229 88.1335 26.1115 88.0736 26.0879C88.0138 26.0643 87.9593 26.0291 87.9132 25.9842V25.9855ZM59.1928 24.6986C58.7269 24.2477 58.3566 23.7077 58.1035 23.1106C57.8505 22.5136 57.7202 21.8719 57.7202 21.2234C57.7202 20.5749 57.8505 19.9332 58.1035 19.3362C58.3566 18.7392 58.7269 18.1991 59.1928 17.7482C60.0765 16.8955 61.2372 16.3887 62.4631 16.3203C63.6892 16.2519 64.899 16.6265 65.8721 17.3757C65.9767 17.4619 66.045 17.5845 66.0634 17.7188C66.0739 17.8512 66.0337 17.9826 65.9512 18.0867C65.8686 18.1907 65.7496 18.2595 65.6182 18.2793C65.5541 18.2871 65.4891 18.2815 65.4272 18.2631C65.3653 18.2447 65.3078 18.2138 65.2583 18.1723C64.4798 17.5631 63.5072 17.2564 62.5203 17.309C61.5334 17.3616 60.5989 17.7699 59.8895 18.4584C59.5123 18.8148 59.2129 19.2455 59.0102 19.7232C58.8073 20.201 58.7055 20.7157 58.7114 21.2347C58.7044 21.7522 58.8055 22.2654 59.0082 22.7415C59.2111 23.2175 59.5109 23.646 59.8889 23.9995C60.248 24.3633 60.6761 24.6517 61.1481 24.8478C61.6202 25.044 62.1265 25.1439 62.6376 25.1417C63.5795 25.1763 64.5019 24.8671 65.2329 24.2718C65.3469 24.1899 65.4883 24.1554 65.6272 24.1758C65.6926 24.1836 65.7551 24.2061 65.8104 24.2419C65.8657 24.2775 65.9121 24.3253 65.9462 24.3817C65.9888 24.4301 66.0209 24.487 66.0401 24.5488C66.0594 24.6105 66.0655 24.6755 66.058 24.7398C66.0523 24.8073 66.0323 24.8727 65.9993 24.9319C65.9662 24.9911 65.921 25.0426 65.8665 25.0827C64.9749 25.7758 63.8752 26.1468 62.746 26.1358C62.0871 26.1462 61.4328 26.0247 60.8216 25.7781C60.2103 25.5317 59.6547 25.1653 59.1872 24.7007L59.1928 24.6986ZM51.8496 25.9855C51.8042 25.9407 51.7682 25.8873 51.7438 25.8284C51.7193 25.7696 51.7067 25.7063 51.707 25.6426V21.4741L48.6001 17.2831C48.5581 17.2325 48.5273 17.1734 48.5097 17.1099C48.4921 17.0464 48.488 16.9799 48.4979 16.9148C48.5077 16.8496 48.5312 16.7873 48.5665 16.7317C48.602 16.6761 48.6488 16.6287 48.7037 16.5923C48.7543 16.5498 48.8134 16.5187 48.877 16.5009C48.9407 16.4832 49.0074 16.4793 49.0727 16.4894C49.1389 16.4974 49.2026 16.52 49.259 16.5556C49.3154 16.5911 49.3634 16.6389 49.3991 16.6951L52.1828 20.524L54.9852 16.6883C55.0208 16.6348 55.0679 16.5897 55.123 16.5566C55.1782 16.5235 55.2401 16.5031 55.3041 16.4969C55.3722 16.4863 55.4419 16.491 55.508 16.5106C55.574 16.5303 55.6349 16.5645 55.6861 16.6108C55.7375 16.6462 55.7805 16.6924 55.812 16.7462C55.8436 16.8001 55.8629 16.8602 55.8686 16.9223C55.8789 16.9876 55.8758 17.0543 55.8592 17.1182C55.8428 17.1822 55.8133 17.242 55.7725 17.2941L52.6809 21.4789V25.6487C52.6801 25.7452 52.6508 25.8393 52.5967 25.9191C52.5424 25.9989 52.4657 26.0607 52.3763 26.0968C52.287 26.133 52.1889 26.1418 52.0945 26.1221C52.0001 26.1024 51.9137 26.0551 51.8462 25.9863L51.8496 25.9855ZM32.372 25.9855C32.3268 25.9407 32.291 25.8872 32.2666 25.8284C32.2423 25.7694 32.2298 25.7063 32.2301 25.6426V21.6313C32.23 21.5674 32.2426 21.5042 32.2673 21.4454C32.2919 21.3864 32.3279 21.333 32.3735 21.2882C32.4183 21.2428 32.4716 21.2068 32.5304 21.1823C32.5894 21.1579 32.6526 21.1454 32.7163 21.1455H35.3609C35.6043 21.1444 35.8451 21.0944 36.069 20.9984C36.2929 20.9025 36.4952 20.7627 36.6639 20.5871C36.8393 20.4188 36.9782 20.2163 37.0718 19.992C37.1655 19.7678 37.2121 19.5266 37.2085 19.2836C37.2121 19.0406 37.1656 18.7994 37.0719 18.5751C36.9783 18.3508 36.8393 18.1483 36.6639 17.9802C36.496 17.8046 36.2935 17.6656 36.0692 17.572C35.845 17.4784 35.6038 17.4321 35.3609 17.4361H32.7157C32.6495 17.4368 32.5839 17.4233 32.5235 17.3967C32.463 17.3702 32.4087 17.3309 32.3645 17.2818C32.2754 17.1878 32.2263 17.0629 32.2274 16.9333C32.2266 16.901 32.2293 16.8689 32.2355 16.8372C32.2363 16.8334 32.2363 16.8294 32.2355 16.8255C32.2556 16.7352 32.3013 16.6525 32.3672 16.5875C32.3851 16.5705 32.4044 16.5548 32.4249 16.5408C32.5073 16.4783 32.608 16.4446 32.7115 16.4448H35.3554C35.7287 16.4396 36.0991 16.5109 36.4438 16.6545C36.7884 16.7979 37.1001 17.0105 37.3594 17.279C37.6267 17.5389 37.8382 17.8503 37.9811 18.1947C38.1241 18.539 38.1953 18.9088 38.1906 19.2816C38.195 19.6543 38.1237 20.024 37.9808 20.3683C37.8379 20.7127 37.6264 21.0241 37.3594 21.2842C37.1004 21.5511 36.79 21.7624 36.4467 21.9052C36.1035 22.0481 35.7347 22.1195 35.3629 22.1149L33.2198 22.1403V25.6487C33.2206 25.7149 33.2072 25.7803 33.1807 25.8409C33.1542 25.9015 33.1151 25.9557 33.066 26C32.9716 26.0889 32.8466 26.138 32.717 26.1373C32.6531 26.137 32.5898 26.124 32.5308 26.099C32.472 26.0742 32.4187 26.0376 32.3741 25.9918L32.372 25.9855ZM43.2575 24.9043C43.1273 24.9046 43.0023 24.8533 42.9098 24.7617C42.8188 24.6707 42.7672 24.5474 42.7665 24.4187C42.767 24.3538 42.7804 24.2897 42.8058 24.2299C42.8312 24.1702 42.8683 24.1162 42.9146 24.0708C43.0054 23.9792 43.1285 23.9268 43.2575 23.9247H43.9035C43.9674 23.9251 44.0306 23.9382 44.0894 23.9629C44.1482 23.9878 44.2016 24.0239 44.2465 24.0694C44.2922 24.1141 44.3285 24.1675 44.3534 24.2263C44.3783 24.2853 44.3911 24.3485 44.3912 24.4125C44.3913 24.4768 44.3786 24.5405 44.3542 24.6C44.3297 24.6595 44.2937 24.7135 44.2482 24.7591C44.2029 24.8046 44.1489 24.8407 44.0895 24.8655C44.0301 24.8902 43.9665 24.9029 43.9023 24.903L43.2575 24.9043ZM73.1665 23.6188C73.0739 23.5258 73.0218 23.3998 73.0218 23.2685C73.0218 23.1372 73.0739 23.0113 73.1665 22.9182L74.3941 21.6923C74.4874 21.6011 74.6127 21.5504 74.7432 21.5511C74.8735 21.5519 74.9983 21.6039 75.0906 21.6962C75.1828 21.7884 75.2348 21.9132 75.2356 22.0437C75.2363 22.1742 75.1855 22.2996 75.0944 22.3927L73.8688 23.6188C73.823 23.6648 73.7688 23.7015 73.7088 23.7263C73.6488 23.7513 73.5846 23.7642 73.5197 23.7642C73.4548 23.7642 73.3906 23.7513 73.3306 23.7263C73.2707 23.7015 73.2163 23.6648 73.1706 23.6188H73.1665ZM76.6245 22.8168C76.5318 22.7238 76.4797 22.5978 76.4797 22.4666C76.4797 22.3352 76.5318 22.2093 76.6245 22.1164L76.8631 21.8817C76.9089 21.8348 76.9636 21.7975 77.0238 21.772C77.0842 21.7465 77.149 21.7331 77.2144 21.7327C77.2799 21.7323 77.3448 21.745 77.4054 21.7699C77.4659 21.7948 77.5209 21.8315 77.5673 21.8778C77.6136 21.9241 77.6502 21.9792 77.6751 22.0398C77.7001 22.1003 77.7126 22.1652 77.7122 22.2308C77.7119 22.2963 77.6985 22.3611 77.673 22.4214C77.6475 22.4817 77.6102 22.5363 77.5634 22.5821L77.3281 22.8168C77.2822 22.8627 77.2277 22.8989 77.1676 22.9236C77.1076 22.9482 77.0433 22.9606 76.9784 22.9601C76.8477 22.9593 76.7224 22.9071 76.6299 22.8147L76.6245 22.8168ZM72.4142 21.7123C72.368 21.6664 72.3313 21.6118 72.3062 21.5517C72.2812 21.4916 72.2684 21.4271 72.2684 21.362C72.2684 21.2969 72.2812 21.2324 72.3062 21.1724C72.3313 21.1122 72.368 21.0576 72.4142 21.0118L74.0992 19.3254C74.1436 19.2736 74.1981 19.2314 74.2595 19.2016C74.3209 19.1718 74.3879 19.1551 74.4562 19.1523C74.5243 19.1496 74.5923 19.161 74.6559 19.1859C74.7195 19.2106 74.7772 19.2483 74.8255 19.2967C74.8739 19.3449 74.9117 19.4025 74.9367 19.4661C74.9615 19.5296 74.9731 19.5976 74.9706 19.6659C74.968 19.7341 74.9513 19.8011 74.9217 19.8626C74.892 19.924 74.8499 19.9787 74.7981 20.0231L73.1138 21.7088C73.068 21.7548 73.0136 21.7913 72.9538 21.8162C72.894 21.841 72.8298 21.8539 72.765 21.8539C72.7002 21.8539 72.6359 21.841 72.5761 21.8162C72.5163 21.7913 72.4619 21.7548 72.4163 21.7088L72.4142 21.7123ZM91.9356 21.8137C91.8688 21.8141 91.8028 21.8011 91.741 21.7757C91.6793 21.7503 91.6231 21.7132 91.5758 21.666C91.5286 21.6188 91.4911 21.5629 91.4655 21.5013C91.4398 21.4397 91.4268 21.3736 91.4268 21.3067C91.4266 21.2399 91.4397 21.1737 91.4652 21.1117C91.4907 21.0499 91.5283 20.9937 91.5756 20.9464C91.6228 20.899 91.6789 20.8615 91.7407 20.8359C91.8025 20.8102 91.8687 20.797 91.9356 20.797H97.3008C97.436 20.797 97.5657 20.8508 97.6611 20.9464C97.7567 21.0419 97.8105 21.1716 97.8105 21.3067C97.8102 21.4417 97.7566 21.5709 97.6611 21.6663C97.5657 21.7616 97.4364 21.8151 97.3016 21.8151H91.9349L91.9356 21.8137ZM75.4379 21.3335C75.3456 21.2404 75.2938 21.1144 75.2938 20.9833C75.2938 20.8521 75.3456 20.7263 75.4379 20.6331L77.1765 18.894C77.2224 18.8471 77.2769 18.8099 77.3373 18.7842C77.3975 18.7587 77.4623 18.7454 77.5278 18.745C77.5933 18.7446 77.6582 18.7573 77.7187 18.7822C77.7793 18.807 77.8344 18.8437 77.8806 18.8901C77.927 18.9363 77.9637 18.9914 77.9885 19.052C78.0134 19.1127 78.0261 19.1776 78.0257 19.243C78.0253 19.3086 78.012 19.3734 77.9865 19.4336C77.9609 19.494 77.9236 19.5487 77.8767 19.5944L76.1396 21.3335C76.094 21.3799 76.0396 21.4169 75.9796 21.442C75.9196 21.4673 75.8553 21.4802 75.7901 21.4802C75.7251 21.4802 75.6607 21.4673 75.6006 21.442C75.5406 21.4169 75.4863 21.3799 75.4408 21.3335H75.4379ZM70.3663 21.0955C70.2736 21.0025 70.2215 20.8766 70.2215 20.7452C70.2215 20.6139 70.2736 20.488 70.3663 20.395L76.5812 14.1788C76.6746 14.0859 76.8009 14.0339 76.9326 14.0343C77.0642 14.0346 77.1904 14.0872 77.2833 14.1806C77.376 14.2739 77.4281 14.4003 77.4277 14.5319C77.4274 14.6636 77.3748 14.7898 77.2815 14.8827L71.0672 21.0989C71.0214 21.1449 70.967 21.1814 70.9071 21.2062C70.8472 21.2311 70.783 21.2438 70.7181 21.2436C70.5878 21.2425 70.4632 21.1902 70.3711 21.0983L70.3663 21.0955ZM75.1507 18.9687C75.0579 18.8757 75.0058 18.7498 75.0058 18.6185C75.0058 18.4873 75.0579 18.3612 75.1507 18.2683L75.5052 17.9136C75.551 17.8668 75.6057 17.8295 75.6659 17.804C75.7261 17.7783 75.791 17.765 75.8564 17.7647C75.922 17.7643 75.9869 17.7769 76.0473 17.8019C76.108 17.8268 76.163 17.8634 76.2093 17.9097C76.2556 17.9561 76.2923 18.0111 76.3171 18.0716C76.342 18.1323 76.3547 18.1972 76.3543 18.2627C76.3539 18.3282 76.3406 18.393 76.3151 18.4533C76.2896 18.5136 76.2523 18.5683 76.2054 18.6141L75.8509 18.9681C75.8053 19.014 75.7511 19.0502 75.6914 19.0751C75.6317 19.1 75.5677 19.1127 75.5031 19.1127C75.4385 19.1127 75.3745 19.1 75.3149 19.0751C75.2552 19.0502 75.201 19.014 75.1554 18.9681L75.1507 18.9687ZM76.5586 17.561C76.5125 17.5152 76.4757 17.4606 76.4507 17.4005C76.4257 17.3404 76.4127 17.2759 76.4127 17.2108C76.4127 17.1456 76.4257 17.0811 76.4507 17.021C76.4757 16.961 76.5125 16.9063 76.5586 16.8606L79.7032 13.7115C79.7484 13.6623 79.8032 13.6225 79.8642 13.5949C79.9252 13.5673 79.9911 13.5524 80.0581 13.551C80.1249 13.5496 80.1915 13.5616 80.2535 13.5866C80.3157 13.6117 80.372 13.649 80.4194 13.6963C80.4667 13.7437 80.5039 13.8002 80.5289 13.8622C80.5537 13.9244 80.5658 13.991 80.5644 14.0579C80.5628 14.1249 80.5478 14.1908 80.5202 14.2518C80.4925 14.3127 80.4527 14.3675 80.4034 14.4127L77.2581 17.5596C77.2124 17.6057 77.1579 17.6424 77.0978 17.6673C77.0378 17.6923 76.9734 17.7051 76.9084 17.7051C76.778 17.703 76.6534 17.65 76.5614 17.5575L76.5586 17.561ZM91.9384 17.4499C91.8038 17.4499 91.6747 17.3963 91.5795 17.3011C91.4843 17.2059 91.4309 17.0768 91.4309 16.9422C91.4309 16.8075 91.4843 16.6784 91.5795 16.5832C91.6747 16.488 91.8038 16.4345 91.9384 16.4345H97.3056C97.3724 16.4343 97.4385 16.4473 97.5003 16.4727C97.5619 16.4981 97.6181 16.5354 97.6654 16.5824C97.7127 16.6295 97.7504 16.6854 97.776 16.7471C97.8017 16.8086 97.815 16.8747 97.8153 16.9414C97.8151 17.0083 97.8019 17.0745 97.7763 17.1362C97.7505 17.198 97.7131 17.2541 97.6657 17.3012C97.6184 17.3484 97.5622 17.3859 97.5004 17.4114C97.4386 17.4369 97.3724 17.45 97.3056 17.4499H91.9384ZM68.5515 15.8719C68.4672 15.7864 68.4201 15.6711 68.4203 15.551C68.4206 15.4309 68.4683 15.3157 68.553 15.2306C68.6377 15.1454 68.7527 15.0972 68.8728 15.0965C68.9928 15.0957 69.1084 15.1423 69.1942 15.2264C69.2387 15.2675 69.2744 15.3171 69.2993 15.3722C69.3242 15.4274 69.3378 15.487 69.3393 15.5475C69.3407 15.608 69.3301 15.6681 69.3078 15.7245C69.2857 15.7807 69.2524 15.832 69.2099 15.8751C69.1676 15.9184 69.1169 15.9526 69.0611 15.9758C69.0051 15.9991 68.9453 16.0109 68.8847 16.0105C68.8242 16.0101 68.7644 15.9976 68.7088 15.9737C68.6532 15.9498 68.6031 15.9149 68.5611 15.8713L68.5515 15.8719ZM70.6221 13.7973C70.5434 13.7188 70.4897 13.6188 70.468 13.5097C70.4462 13.4007 70.4574 13.2876 70.4998 13.1849C70.5423 13.0822 70.6142 12.9943 70.7067 12.9325C70.799 12.8708 70.9077 12.8378 71.0188 12.8378C71.13 12.8378 71.2386 12.8708 71.331 12.9325C71.4235 12.9943 71.4954 13.0822 71.5378 13.1849C71.5803 13.2876 71.5915 13.4007 71.5697 13.5097C71.548 13.6188 71.4943 13.7188 71.4156 13.7973C71.3639 13.8502 71.3021 13.8919 71.2339 13.9201C71.1656 13.9485 71.0924 13.9628 71.0185 13.962C70.8721 13.9599 70.7325 13.9002 70.6296 13.796L70.6221 13.7973Z" fill="#18191F"/>
<path d="M36.8345 7.7555C36.8429 7.57345 36.8089 7.39192 36.7352 7.22523C36.6615 7.05855 36.5502 6.91127 36.4099 6.79504C35.9389 6.47467 35.4113 6.24718 34.8551 6.12478C34.272 5.98483 33.7159 5.74981 33.2091 5.42914C32.9789 5.27918 32.7902 5.07359 32.6606 4.83136C32.5308 4.58914 32.4643 4.3181 32.4671 4.04333C32.462 3.77825 32.522 3.51596 32.6414 3.27931C32.7609 3.04267 32.9366 2.83887 33.1529 2.68566C33.664 2.32149 34.2817 2.13782 34.9086 2.16358C35.3561 2.15596 35.7994 2.25149 36.2041 2.44279C36.5693 2.61326 36.8785 2.88401 37.0957 3.22351C37.3048 3.55717 37.4138 3.94386 37.4098 4.33764H36.7926C36.8017 4.11299 36.7609 3.8891 36.6731 3.68211C36.5854 3.47512 36.4528 3.29014 36.285 3.14049C35.9006 2.8232 35.4111 2.66186 34.9134 2.68839C34.4415 2.66405 33.9747 2.79488 33.5843 3.06091C33.4279 3.16971 33.3005 3.31538 33.2136 3.48504C33.1268 3.65471 33.0831 3.84315 33.0863 4.03372C33.0824 4.2087 33.1205 4.38205 33.1972 4.53934C33.2739 4.69664 33.3871 4.8333 33.5273 4.93792C33.9588 5.23216 34.4422 5.44169 34.9518 5.55536C35.4664 5.68101 35.9645 5.86731 36.4353 6.11037C36.7407 6.27334 37.0014 6.50894 37.1944 6.79641C37.3693 7.08091 37.4579 7.41 37.4496 7.74384C37.4564 8.01231 37.3975 8.27838 37.278 8.51885C37.1584 8.75932 36.9819 8.9669 36.7637 9.12348C36.235 9.49111 35.5998 9.67412 34.9566 9.64418C34.4723 9.64962 33.9921 9.55625 33.5452 9.36976C33.1521 9.21576 32.8129 8.94951 32.5699 8.60413C32.3456 8.26736 32.2295 7.86997 32.2373 7.4653H32.8546C32.8454 7.69898 32.8928 7.93141 32.9928 8.14283C33.0928 8.35424 33.2423 8.53838 33.4286 8.6796C33.8746 8.99589 34.4141 9.15252 34.96 9.12416C35.4427 9.14787 35.9204 9.01688 36.3235 8.75027C36.4854 8.64058 36.6174 8.4921 36.7074 8.31835C36.7973 8.14462 36.8424 7.95113 36.8385 7.7555H36.8345ZM40.732 9.64418C40.2934 9.64822 39.8625 9.5294 39.4879 9.30116C39.1178 9.0727 38.8195 8.74459 38.6272 8.35442C38.416 7.93171 38.3095 7.46443 38.3165 6.99194V6.77789C38.3088 6.29232 38.4126 5.81144 38.6196 5.3722C38.8054 4.97415 39.0963 4.63444 39.4611 4.38978C39.8063 4.15612 40.2137 4.03182 40.6304 4.03303C40.9246 4.01968 41.2178 4.07303 41.4884 4.18909C41.759 4.30517 41.9997 4.48096 42.1927 4.70331C42.6016 5.22655 42.8058 5.88097 42.7668 6.54395V6.87874H38.9043V6.99331C38.8835 7.55237 39.0704 8.09931 39.429 8.52867C39.5894 8.72444 39.7923 8.88132 40.0222 8.98754C40.252 9.09375 40.5028 9.14656 40.7559 9.14199C41.0476 9.14746 41.3368 9.08744 41.6022 8.96637C41.8667 8.83499 42.0962 8.64294 42.2724 8.40587L42.6475 8.69264C42.4366 9.00235 42.1497 9.25257 41.8143 9.41922C41.4788 9.58588 41.106 9.66334 40.732 9.64418ZM40.6223 4.54551C40.4084 4.54183 40.1963 4.58408 40 4.66941C39.8039 4.75474 39.6283 4.88116 39.4852 5.04015C39.1592 5.41082 38.9616 5.87692 38.9221 6.36901H42.1654V6.3004C42.1692 5.83834 42.012 5.38936 41.7209 5.03055C41.5866 4.87178 41.4181 4.7454 41.228 4.66082C41.0382 4.57626 40.8314 4.53567 40.6236 4.54208L40.6223 4.54551ZM45.9245 9.14199C46.3068 9.15518 46.6809 9.02888 46.9771 8.78662C47.1136 8.67561 47.225 8.53688 47.3039 8.37957C47.3828 8.22227 47.4273 8.05001 47.4346 7.87419H48.0093C47.9941 8.19843 47.8863 8.51152 47.6987 8.77633C47.5065 9.05041 47.2465 9.26999 46.9442 9.41366C46.6292 9.56709 46.283 9.64552 45.9326 9.64281C45.6137 9.65666 45.2959 9.5972 45.0035 9.469C44.7112 9.34079 44.452 9.14725 44.2462 8.90326C43.8069 8.33626 43.586 7.6301 43.6241 6.91374V6.73399C43.613 6.24888 43.7066 5.76709 43.8984 5.32143C44.0662 4.93337 44.3443 4.60319 44.6981 4.37195C45.0642 4.14358 45.489 4.02722 45.9203 4.03715C46.458 4.01773 46.9821 4.2073 47.3831 4.5661C47.5752 4.74465 47.7291 4.96044 47.8352 5.20033C47.9413 5.44022 47.9975 5.69919 48.0003 5.9615H47.4256C47.4159 5.57316 47.2528 5.20445 46.9723 4.93588C46.6862 4.67274 46.3081 4.53278 45.9195 4.5462C45.679 4.53506 45.4394 4.58233 45.221 4.684C45.0028 4.78567 44.8122 4.9387 44.6659 5.13001C44.3399 5.61318 44.1824 6.19055 44.2181 6.77241V6.94734C44.1839 7.51963 44.341 8.08703 44.6646 8.56024C44.8131 8.75045 45.0055 8.90196 45.2251 9.00193C45.4448 9.1019 45.6855 9.14736 45.9264 9.13445L45.9245 9.14199ZM52.6757 8.86072C52.479 9.12717 52.2176 9.33898 51.9164 9.4761C51.615 9.6132 51.2835 9.67105 50.9536 9.64418C50.7114 9.66065 50.4685 9.62433 50.2419 9.53774C50.0151 9.45117 49.8098 9.31637 49.6402 9.14268C49.3114 8.71904 49.1479 8.19004 49.1807 7.65466V4.13595H49.7732V7.58262C49.7732 8.61214 50.1898 9.1269 51.0229 9.1269C51.38 9.16992 51.7407 9.08584 52.0421 8.88941C52.3434 8.69297 52.566 8.39671 52.6708 8.05256V4.13595H53.271V9.54813H52.6901L52.6757 8.86072ZM57.3174 4.64978C57.1837 4.62538 57.048 4.61343 56.9121 4.61412C56.57 4.60334 56.2351 4.71309 55.9657 4.9242C55.6899 5.16057 55.4964 5.47839 55.4128 5.83184V9.54813H54.8188V4.13595H55.4087L55.4191 4.99693C55.5461 4.70161 55.7597 4.45177 56.0317 4.28031C56.3036 4.10886 56.621 4.02384 56.9423 4.03647C57.0775 4.03191 57.2122 4.05525 57.338 4.10507L57.3174 4.64978ZM60.3583 9.64418C59.9198 9.64834 59.4888 9.5295 59.1143 9.30116C58.7419 9.07354 58.4414 8.74537 58.2473 8.35442C58.0364 7.93256 57.9291 7.46638 57.9347 6.99469V6.78063C57.927 6.29513 58.0305 5.81433 58.2371 5.37494C58.4226 4.97653 58.7139 4.63672 59.0793 4.39252C59.425 4.15747 59.8334 4.03197 60.2513 4.03235C60.5454 4.0193 60.8383 4.07278 61.1088 4.18885C61.3792 4.3049 61.6199 4.48052 61.813 4.70262C62.2223 5.22587 62.4266 5.8807 62.3871 6.54395V6.87874H58.5285V6.99331C58.5087 7.55249 58.6967 8.09919 59.056 8.52799C59.2166 8.72368 59.4194 8.88045 59.6493 8.98655C59.8791 9.09265 60.13 9.14532 60.3831 9.14062C60.6738 9.14634 60.9622 9.08632 61.2267 8.96499C61.4909 8.83384 61.7205 8.64202 61.8967 8.40519L62.2718 8.69195C62.0613 9.00158 61.7748 9.25181 61.4397 9.41858C61.1045 9.58536 60.7321 9.66304 60.3583 9.64418ZM60.248 4.54483C60.0346 4.54151 59.823 4.58394 59.6276 4.66926C59.432 4.75458 59.257 4.88081 59.1143 5.03946C58.7877 5.41026 58.5905 5.87707 58.5519 6.3697H61.7938V6.30109C61.7981 5.83872 61.641 5.38935 61.3493 5.03055C61.215 4.87175 61.0466 4.74539 60.8566 4.66093C60.6666 4.57646 60.4599 4.53607 60.252 4.54277L60.248 4.54483ZM71.3322 7.27458C71.2951 7.94556 71.0001 8.57621 70.5092 9.03497C69.9873 9.46106 69.3258 9.67836 68.6528 9.64487C68.1449 9.65475 67.6456 9.51365 67.218 9.23941C66.7937 8.95754 66.4602 8.55862 66.2579 8.09098C66.0237 7.55622 65.9067 6.97747 65.9149 6.3937V5.45109C65.9039 4.85865 66.0208 4.27081 66.2579 3.72776C66.4608 3.25507 66.7983 2.85258 67.2283 2.5704C67.6676 2.29493 68.1775 2.15333 68.6959 2.16289C69.3714 2.12563 70.0347 2.35329 70.545 2.79747C71.0161 3.26107 71.2969 3.88406 71.3322 4.54414H70.715C70.716 4.28725 70.6635 4.03297 70.5609 3.79746C70.4582 3.56197 70.3078 3.35039 70.1191 3.17618C69.9295 3.00212 69.7057 2.86952 69.4619 2.78684C69.2181 2.70415 68.9599 2.67319 68.7035 2.69595C68.4008 2.68561 68.1001 2.74725 67.8258 2.87582C67.5516 3.00437 67.3118 3.19619 67.1261 3.4355C66.7036 4.03052 66.4967 4.75198 66.5397 5.48059V6.37244C66.5031 7.0876 66.705 7.79464 67.1138 8.38255C67.2916 8.62279 67.5253 8.81618 67.7944 8.94609C68.0636 9.07599 68.3603 9.13852 68.659 9.12827C69.185 9.16723 69.7058 9.00158 70.1129 8.66588C70.4709 8.28873 70.685 7.79774 70.7178 7.2787L71.3322 7.27458ZM73.2773 5.04975C73.4606 4.7396 73.7204 4.48166 74.0318 4.3006C74.3364 4.12313 74.6831 4.03051 75.0357 4.03235C75.2742 4.01382 75.5136 4.04812 75.7372 4.13279C75.9608 4.21746 76.163 4.35041 76.3293 4.52219C76.6431 4.9451 76.7955 5.46625 76.7593 5.99169V9.54813H76.1653V5.99169C76.1925 5.60706 76.0847 5.225 75.8608 4.91117C75.7358 4.7841 75.5841 4.68639 75.4168 4.62505C75.2494 4.56372 75.0705 4.5403 74.8931 4.55649C74.5361 4.55309 74.1895 4.67605 73.9144 4.90363C73.6191 5.15012 73.3996 5.47529 73.2814 5.84145V9.54607H72.6874V1.86926H73.28L73.2773 5.04975ZM80.3935 9.64623C79.9546 9.65027 79.5234 9.53145 79.1487 9.30321C78.7761 9.07501 78.4756 8.74609 78.2818 8.35442C78.0705 7.93293 77.9635 7.46684 77.9698 6.99537V6.78132C77.9622 6.29582 78.0655 5.81501 78.2723 5.37563C78.4577 4.97722 78.749 4.63741 79.1144 4.39321C79.4592 4.15844 79.8666 4.03272 80.2838 4.03235C80.5776 4.0193 80.8708 4.07278 81.1412 4.18885C81.4115 4.3049 81.6523 4.48052 81.8454 4.70262C82.2573 5.22489 82.4642 5.87976 82.427 6.54395V6.87874H78.5691V6.99331C78.5493 7.55249 78.7372 8.09919 79.0965 8.52799C79.2571 8.72368 79.46 8.88045 79.6899 8.98655C79.9197 9.09265 80.1706 9.14532 80.4236 9.14062C80.7153 9.14676 81.0047 9.08672 81.27 8.96499C81.5338 8.83365 81.7629 8.64185 81.9387 8.40519L82.3138 8.69195C82.1032 9.00131 81.8165 9.2513 81.4815 9.41794C81.1464 9.58456 80.774 9.66223 80.4003 9.64349L80.3935 9.64623ZM80.2831 4.54689C80.0691 4.54317 79.857 4.58539 79.6609 4.67072C79.4646 4.75605 79.2891 4.88249 79.1459 5.04152C78.8201 5.41274 78.6231 5.87935 78.5843 6.37176H81.8323V6.30727C81.8378 5.84443 81.6813 5.39426 81.39 5.03465C81.2558 4.87561 81.0874 4.749 80.8973 4.6643C80.7073 4.57959 80.5006 4.53898 80.2927 4.54551L80.2831 4.54689ZM85.5859 9.14336C85.966 9.15468 86.3374 9.02823 86.6317 8.78731C86.7684 8.67622 86.8798 8.53737 86.9586 8.37995C87.0375 8.22253 87.0821 8.05013 87.0892 7.87419H87.6639C87.6496 8.19826 87.5431 8.51149 87.3567 8.77702C87.1643 9.05088 86.9044 9.27041 86.6023 9.41435C86.2871 9.56783 85.9406 9.64647 85.59 9.64418C85.2702 9.65835 84.9514 9.59892 84.6582 9.47047C84.365 9.34202 84.1052 9.14796 83.8988 8.90326C83.4601 8.33591 83.2394 7.63 83.2767 6.91374V6.73399C83.2669 6.24785 83.3621 5.76532 83.5558 5.31937C83.7251 4.93156 84.0046 4.60211 84.3596 4.37195C84.7251 4.14358 85.1496 4.0272 85.5804 4.03715C86.1193 4.01702 86.6452 4.20661 87.0474 4.5661C87.2397 4.74452 87.3936 4.96028 87.4997 5.20021C87.6059 5.44013 87.6619 5.69916 87.6647 5.9615H87.0906C87.0795 5.5726 86.915 5.2039 86.6331 4.93588C86.347 4.67286 85.9688 4.53313 85.5804 4.54689C85.3391 4.53515 85.0985 4.5822 84.8794 4.68402C84.6604 4.78584 84.4692 4.93936 84.3226 5.13139C83.9988 5.61487 83.8433 6.19162 83.8802 6.77241V6.94734C83.8458 7.51965 84.0029 8.08713 84.3267 8.56024C84.4754 8.75031 84.6677 8.90174 84.8874 9.0017C85.1071 9.10164 85.3476 9.14719 85.5887 9.13445L85.5859 9.14336ZM90.148 6.82317L89.4622 7.48246V9.54813H88.8655V1.86926H89.4643V6.78407L90.0267 6.17006L92.1033 4.13595H92.8577L90.5575 6.41635L93.0491 9.54813H92.3365L90.148 6.82317ZM93.5463 6.76348C93.5393 6.27796 93.6437 5.79731 93.8515 5.35847C94.0387 4.95747 94.3376 4.619 94.7122 4.38361C95.0852 4.15077 95.5173 4.03004 95.9571 4.03578C96.2862 4.02419 96.6139 4.08586 96.9163 4.21637C97.2187 4.34688 97.4884 4.54295 97.7059 4.79043C98.1729 5.35293 98.412 6.07022 98.3759 6.80054V6.92471C98.3836 7.41265 98.2802 7.89593 98.0735 8.33795C97.8895 8.73772 97.5928 9.07493 97.2197 9.30801C96.8425 9.53903 96.4074 9.65799 95.9652 9.65103C95.6365 9.66232 95.3093 9.60049 95.0074 9.46998C94.7055 9.33948 94.4362 9.14358 94.2191 8.89639C93.7514 8.33429 93.5122 7.61671 93.5491 6.88629L93.5463 6.76348ZM94.145 6.92813C94.1216 7.50113 94.2994 8.06424 94.6477 8.51976C94.8029 8.7197 95.003 8.88025 95.2317 8.98835C95.4606 9.09647 95.7116 9.1491 95.9646 9.14199C96.2166 9.14881 96.4669 9.09609 96.6948 8.98809C96.9228 8.8801 97.1221 8.71988 97.2765 8.52045C97.628 8.04741 97.8042 7.46674 97.7744 6.87805V6.76281C97.7792 6.37261 97.7012 5.98584 97.5454 5.62808C97.4098 5.30673 97.1861 5.03034 96.9 4.8309C96.6206 4.64 96.2891 4.53986 95.9508 4.54414C95.6995 4.53861 95.4506 4.59252 95.2242 4.70149C94.9978 4.81046 94.8003 4.97139 94.6477 5.17118C94.295 5.64376 94.1177 6.22447 94.1464 6.81357L94.145 6.92813ZM103.086 8.86003C102.89 9.12684 102.628 9.33899 102.327 9.47634C102.025 9.61369 101.694 9.67171 101.363 9.64487C101.121 9.66154 100.878 9.62519 100.651 9.53834C100.424 9.45151 100.219 9.31625 100.049 9.14199C99.7213 8.71832 99.5591 8.18945 99.5933 7.65466V4.13595H100.187V7.58262C100.187 8.61214 100.604 9.1269 101.437 9.1269C101.794 9.16941 102.154 9.08509 102.455 8.88869C102.756 8.6923 102.978 8.39632 103.083 8.05256V4.13595H103.679V9.54813H103.099L103.086 8.86003ZM106.16 2.75426V4.13801H107.279V4.62715H106.159V8.22888C106.142 8.46379 106.199 8.69814 106.322 8.89914C106.388 8.977 106.472 9.03772 106.566 9.07608C106.661 9.11443 106.763 9.12928 106.864 9.11936C107.025 9.11301 107.186 9.09651 107.345 9.06995L107.369 9.5598C107.162 9.62371 106.946 9.65246 106.729 9.64487C106.563 9.65928 106.396 9.6345 106.241 9.57255C106.086 9.51059 105.948 9.41318 105.838 9.28813C105.631 8.97773 105.532 8.60731 105.559 8.23504V4.62852H104.571V4.13869H105.566V2.75289L106.16 2.75426Z" fill="#969BAB"/>
<path d="M11.9883 30.13C9.84196 28.9855 7.83144 27.6027 5.99483 26.0076C4.39274 24.644 3.00344 23.0485 1.87301 21.2739C0.687195 19.4441 0.0382797 17.3183 0 15.138V4.64562L11.9876 0.145874L23.9759 4.64562V15.1386C23.9373 17.3189 23.2884 19.4447 22.1029 21.2745C20.9725 23.049 19.5835 24.6445 17.9818 26.0083C16.1451 27.6033 14.1347 28.9862 11.9883 30.1308V30.13ZM7.87331 14.4773C7.67769 14.4771 7.48396 14.5156 7.30329 14.5906C7.12261 14.6656 6.95855 14.7756 6.82057 14.9144C6.54123 15.1946 6.38437 15.5744 6.38437 15.9702C6.38437 16.3659 6.54123 16.7456 6.82057 17.026L9.47405 19.6809C9.61199 19.8195 9.77594 19.9294 9.95648 20.0044C10.137 20.0794 10.3306 20.118 10.5261 20.1179C10.7217 20.1182 10.9155 20.0798 11.0962 20.0048C11.2769 19.9298 11.4409 19.8197 11.5788 19.6809L12.8133 18.446L18.5242 12.732C18.6632 12.5942 18.7734 12.4301 18.8486 12.2494C18.9237 12.0686 18.9622 11.8747 18.9618 11.6789C18.9618 11.4833 18.923 11.2897 18.8479 11.1091C18.7729 10.9285 18.6628 10.7645 18.5242 10.6265C18.3863 10.4877 18.2223 10.3775 18.0416 10.3024C17.8609 10.2273 17.6672 10.1887 17.4715 10.1888C17.276 10.1889 17.0824 10.2276 16.9018 10.3027C16.7213 10.3778 16.5573 10.4879 16.4195 10.6265L10.5295 16.519L8.93018 14.9177C8.79192 14.7781 8.62731 14.6672 8.44589 14.5915C8.26447 14.516 8.06985 14.4771 7.87331 14.4773Z" fill="#006DFF"/>
</g>
<defs>
<clipPath id="clip0_22_5204">
<rect width="181.333" height="31.0954" fill="white" transform="translate(0 0.145874)"/>
</clipPath>
</defs>
</svg>
