<svg width="57" height="39" viewBox="0 0 57 39" fill="none" xmlns="http://www.w3.org/2000/svg">
<mask id="mask0_22_4264" style="mask-type:alpha" maskUnits="userSpaceOnUse" x="0" y="0" width="57" height="39">
<rect y="0.477173" width="56.4254" height="37.6169" fill="white"/>
</mask>
<g mask="url(#mask0_22_4264)">
</g>
<g clip-path="url(#clip0_22_4264)">
<path d="M21.3273 15.3578H18.3449C18.1408 15.3578 17.9673 15.5152 17.9354 15.7292L16.7292 23.8503C16.7053 24.0106 16.8221 24.1551 16.9752 24.1551H18.399C18.6031 24.1551 18.7766 23.9976 18.8085 23.7832L19.1338 21.5928C19.1652 21.3784 19.3392 21.2209 19.5428 21.2209H20.487C22.4515 21.2209 23.5853 20.2114 23.8814 18.2109C24.0149 17.3356 23.8871 16.6479 23.5012 16.1663C23.0773 15.6375 22.3255 15.3578 21.3273 15.3578ZM21.6714 18.3239C21.5083 19.4603 20.6906 19.4603 19.9 19.4603H19.45L19.7657 17.3379C19.7844 17.2097 19.8891 17.1152 20.0112 17.1152H20.2175C20.756 17.1152 21.2641 17.1152 21.5266 17.4412C21.6831 17.6357 21.7311 17.9247 21.6714 18.3239Z" fill="#253B80"/>
<path d="M30.2422 18.2873H28.814C28.6924 18.2873 28.5873 18.3818 28.5685 18.51L28.5053 18.9342L28.4054 18.7805C28.0963 18.304 27.4068 18.1447 26.7187 18.1447C25.1405 18.1447 23.7926 19.414 23.53 21.1945C23.3935 22.0827 23.5876 22.9321 24.062 23.5243C24.4973 24.0689 25.12 24.2958 25.8609 24.2958C27.1325 24.2958 27.8377 23.4276 27.8377 23.4276L27.774 23.849C27.75 24.0101 27.8669 24.1546 28.0191 24.1546H29.3055C29.51 24.1546 29.6827 23.9972 29.715 23.7827L30.4869 18.592C30.5113 18.4322 30.3948 18.2873 30.2422 18.2873ZM28.2515 21.239C28.1137 22.1054 27.4661 22.6871 26.6402 22.6871C26.2255 22.6871 25.894 22.5458 25.6812 22.2782C25.4702 22.0124 25.3899 21.634 25.4571 21.2126C25.5857 20.3536 26.2442 19.753 27.0575 19.753C27.4631 19.753 27.7927 19.896 28.0099 20.166C28.2275 20.4388 28.3139 20.8194 28.2515 21.239Z" fill="#253B80"/>
<path d="M37.8484 18.2874H36.4132C36.2763 18.2874 36.1477 18.3596 36.0701 18.4805L34.0907 21.5767L33.2516 18.6013C33.1989 18.4152 33.0371 18.2874 32.8539 18.2874H31.4436C31.2723 18.2874 31.1532 18.4652 31.2077 18.6365L32.7885 23.5628L31.3024 25.7908C31.1855 25.9663 31.3032 26.2075 31.5051 26.2075H32.9385C33.0746 26.2075 33.2019 26.1371 33.2791 26.0186L38.0525 18.7018C38.1667 18.5268 38.0494 18.2874 37.8484 18.2874Z" fill="#253B80"/>
<path d="M42.5999 15.3578H39.6171C39.4135 15.3578 39.2399 15.5152 39.2081 15.7292L38.0018 23.8503C37.9779 24.0106 38.0947 24.1551 38.2469 24.1551H39.7776C39.9197 24.1551 40.0414 24.0448 40.0637 23.8948L40.406 21.5928C40.4374 21.3784 40.6114 21.2209 40.815 21.2209H41.7587C43.7237 21.2209 44.8571 20.2114 45.1536 18.2109C45.2875 17.3356 45.1589 16.6479 44.7729 16.1663C44.3495 15.6375 43.5981 15.3578 42.5999 15.3578ZM42.944 18.3239C42.7813 19.4603 41.9637 19.4603 41.1726 19.4603H40.723L41.0392 17.3379C41.0579 17.2097 41.1617 17.1152 41.2843 17.1152H41.4905C42.0286 17.1152 42.5371 17.1152 42.7996 17.4412C42.9562 17.6357 43.0037 17.9247 42.944 18.3239Z" fill="#179BD7"/>
<path d="M51.5144 18.2873H50.0871C49.9646 18.2873 49.8604 18.3818 49.8421 18.51L49.7788 18.9342L49.6785 18.7805C49.3693 18.304 48.6803 18.1447 47.9922 18.1447C46.414 18.1447 45.0665 19.414 44.804 21.1945C44.6679 22.0827 44.8611 22.9321 45.3356 23.5243C45.7717 24.0689 46.3935 24.2958 47.1344 24.2958C48.406 24.2958 49.1112 23.4276 49.1112 23.4276L49.0475 23.849C49.0235 24.0101 49.1404 24.1546 49.2935 24.1546H50.5795C50.7831 24.1546 50.9567 23.9972 50.9885 23.7827L51.7608 18.592C51.7844 18.4322 51.6675 18.2873 51.5144 18.2873ZM49.5237 21.239C49.3868 22.1054 48.7383 22.6871 47.9124 22.6871C47.4985 22.6871 47.1663 22.5458 46.9534 22.2782C46.7424 22.0124 46.663 21.634 46.7293 21.2126C46.8588 20.3536 47.5164 19.753 48.3297 19.753C48.7353 19.753 49.065 19.896 49.2821 20.166C49.5006 20.4388 49.587 20.8194 49.5237 21.239Z" fill="#179BD7"/>
<path d="M53.1982 15.5806L51.9741 23.8504C51.9501 24.0107 52.067 24.1552 52.2192 24.1552H53.4498C53.6543 24.1552 53.8279 23.9977 53.8593 23.7833L55.0664 15.6626C55.0904 15.5024 54.9735 15.3574 54.8213 15.3574H53.4433C53.3216 15.3579 53.2169 15.4524 53.1982 15.5806Z" fill="#179BD7"/>
<path d="M4.34411 25.7334L4.57218 24.1951L4.06415 24.1826H1.63821L3.32411 12.8309C3.32935 12.7966 3.34635 12.7647 3.37121 12.742C3.39607 12.7193 3.4279 12.7068 3.46104 12.7068H7.55151C8.90947 12.7068 9.84661 13.0069 10.3359 13.5992C10.5653 13.877 10.7114 14.1674 10.782 14.4869C10.8561 14.8222 10.8575 15.2227 10.7851 15.7113L10.7798 15.747V16.06L11.0092 16.198C11.2024 16.3068 11.3559 16.4314 11.4736 16.574C11.6699 16.8116 11.7968 17.1135 11.8504 17.4715C11.9058 17.8396 11.8875 18.2777 11.7968 18.7737C11.6921 19.3442 11.5229 19.8411 11.2944 20.2477C11.0842 20.6223 10.8165 20.9331 10.4986 21.1739C10.195 21.4026 9.8344 21.5763 9.42666 21.6874C9.03157 21.7967 8.5811 21.8518 8.08702 21.8518H7.76868C7.54104 21.8518 7.31995 21.9389 7.14639 22.095C6.97239 22.2543 6.85726 22.4719 6.82194 22.7099L6.79795 22.8484L6.39501 25.5598L6.3767 25.6593C6.3719 25.6908 6.36362 25.7066 6.3514 25.7172C6.3405 25.727 6.3248 25.7334 6.30954 25.7334H4.34411Z" fill="#253B80"/>
<path d="M11.2265 15.783C11.2142 15.8659 11.2003 15.9506 11.1846 16.0377C10.6452 18.9787 8.79965 19.9947 6.44262 19.9947H5.24252C4.95427 19.9947 4.71137 20.217 4.66646 20.519L4.05201 24.6571L3.87802 25.8301C3.8488 26.0283 3.99271 26.2071 4.18109 26.2071H6.30962C6.56167 26.2071 6.77579 26.0126 6.81547 25.7486L6.83641 25.6338L7.23717 22.933L7.2629 22.7848C7.30214 22.52 7.5167 22.3255 7.76875 22.3255H8.08709C10.1493 22.3255 11.7637 21.4363 12.2356 18.8634C12.4327 17.7886 12.3306 16.8911 11.8091 16.2599C11.6512 16.0696 11.4554 15.9117 11.2265 15.783Z" fill="#179BD7"/>
<path d="M10.6622 15.5441C10.5798 15.5186 10.4947 15.4955 10.4075 15.4746C10.3199 15.4543 10.23 15.4362 10.1376 15.4205C9.814 15.3649 9.45947 15.3385 9.07964 15.3385H5.87355C5.79462 15.3385 5.71962 15.3575 5.65246 15.3918C5.50463 15.4672 5.39473 15.6159 5.36813 15.7979L4.6861 20.3852L4.66647 20.5191C4.71139 20.2171 4.95429 19.9948 5.24254 19.9948H6.44264C8.79967 19.9948 10.6452 18.9784 11.1846 16.0378C11.2008 15.9507 11.2143 15.866 11.2265 15.7831C11.09 15.7062 10.9422 15.6404 10.783 15.5844C10.7437 15.5705 10.7032 15.5571 10.6622 15.5441Z" fill="#222D65"/>
<path d="M5.36804 15.7977C5.39464 15.6157 5.50453 15.4671 5.65237 15.3921C5.71996 15.3578 5.79453 15.3388 5.87346 15.3388H9.07955C9.45937 15.3388 9.81391 15.3652 10.1375 15.4208C10.2299 15.4365 10.3198 15.4546 10.4074 15.475C10.4946 15.4958 10.5797 15.519 10.6621 15.5444C10.7031 15.5574 10.7436 15.5708 10.7833 15.5842C10.9425 15.6403 11.0903 15.7065 11.2268 15.7829C11.3873 14.696 11.2255 13.956 10.6721 13.2859C10.062 12.5482 8.96093 12.2324 7.55195 12.2324H3.46148C3.17367 12.2324 2.92815 12.4547 2.88367 12.7571L1.17989 24.2255C1.14631 24.4524 1.31115 24.6571 1.52658 24.6571H4.05194L4.686 20.3851L5.36804 15.7977Z" fill="#253B80"/>
</g>
<defs>
<clipPath id="clip0_22_4264">
<rect width="54.0744" height="15.2819" fill="white" transform="translate(1.17554 12.2324)"/>
</clipPath>
</defs>
</svg>
