<svg width="57" height="38" viewBox="0 0 57 38" fill="none" xmlns="http://www.w3.org/2000/svg">
<mask id="mask0_22_5194" style="mask-type:alpha" maskUnits="userSpaceOnUse" x="0" y="0" width="57" height="38">
<rect y="0.328125" width="56.4254" height="37.6169" fill="white"/>
</mask>
<g mask="url(#mask0_22_5194)">
<path fill-rule="evenodd" clip-rule="evenodd" d="M37.0629 11.8515C37.0629 10.6815 37.9897 9.73242 39.1309 9.73242C40.274 9.73242 41.2001 10.6815 41.2001 11.8515C41.2001 13.0222 40.274 13.9692 39.1309 13.9692C37.9897 13.9692 37.0629 13.0222 37.0629 11.8515ZM43.0087 11.4649L47.203 10.6961V27.1883H43.0087V11.4649ZM49.135 11.4649V27.1883H53.332V10.6961L49.135 11.4649ZM37.0341 15.1259V27.1886H41.2304V15.1259H37.0341ZM28.82 20.4026C28.82 16.8596 30.7898 15.0771 34.6669 14.9491C34.6669 14.9491 35.3672 14.9215 35.7805 15.0117V18.5375C33.3228 18.6242 33.0513 19.5334 33.0513 21.6538V27.1886H28.82V20.4026ZM23.2823 15.1119C23.2771 15.1255 23.27 15.1445 23.261 15.1687C23.1107 15.5725 22.427 17.4107 20.8925 19.3114V10.6961L16.5617 11.5736V27.1883H20.8925V22.361C22.1465 24.2881 22.7662 27.1883 22.7662 27.1883H27.9524C27.4396 25.0038 25.1956 20.977 25.1956 20.977C27.2105 18.3603 28.0942 15.5737 28.2354 15.1119H23.2823ZM7.54084 15.5826C7.54084 16.7147 8.76937 16.7966 9.29962 16.8317C13.1888 17.0988 15.5068 19.0485 15.5068 22.0485C15.5068 24.6955 13.4341 27.3651 8.81036 27.3651C6.6665 27.3651 4.83715 27.149 3.2148 26.712V22.8593C4.29816 23.3156 6.08315 23.7946 7.9219 23.7946C9.60003 23.7946 10.598 23.2261 10.598 22.2598C10.598 21.0941 9.38772 21.0181 8.92358 20.989L8.91856 20.9887C3.50244 20.6108 2.9191 17.3293 2.9191 15.9364C2.9191 13.5172 4.59521 10.6961 9.32583 10.6961C12.0698 10.6961 13.549 11.1346 14.8233 11.5909L14.8871 11.6108V15.3527L14.8394 15.339C14.328 15.1174 13.7271 14.8999 13.7271 14.8999C12.6478 14.5688 11.1384 14.2165 9.97168 14.2165C9.30836 14.2165 7.54084 14.2165 7.54084 15.5826Z" fill="#862165"/>
</g>
</svg>
